<svg xmlns="http://www.w3.org/2000/svg" width="1017.8" height="1030.61" viewBox="0 0 1017.8 1030.61"><defs><style>.bfb92e40-c938-4774-8303-1e5542ab5b61 { fill: #1d1d1b; }</style></defs><g id="be2b5f26-ebd9-4a0d-a850-2916ecda3af9" data-name="Layer 2"><g id="a7ab764b-7ff6-490a-8728-e11a2fbfda45" data-name="Layer 1"><path d="M525.69 5.33c1.11 7 2.88 14 4.58 20.71 1.1 4.34 2.24 8.83 3.19 13.27 1.33 6.25.13 12.46-3.21 16.61-3.2 4-8.3 6.08-14.77 6.11-4.72 0-9.55-.3-14.22-.62l-5.21-.33c-13.41-.77-23.74-1.38-33.5-2a46 46 0 01-26.88-10.32A188.22 188.22 0 01395 2.45 20.13 20.13 0 01393.76 0h-2.18a22.43 22.43 0 001.73 3.51 190.42 190.42 0 0041.09 46.8 47.94 47.94 0 0028 10.77c9.76.61 20.1 1.23 33.5 2l5.2.33c4.56.31 9.26.62 13.92.62h.44c7.09 0 12.73-2.4 16.32-6.85 3.72-4.62 5.06-11.46 3.6-18.29-.95-4.47-2.09-9-3.2-13.34-1.7-6.74-3.47-13.71-4.57-20.65a.9.9 0 00-.06-.22c0-.07-.73-1.79-1.6-4.68h-2.05c.86 2.94 1.6 4.85 1.79 5.33z" class="bfb92e40-c938-4774-8303-1e5542ab5b61"/><path d="M436.21 602.28a1 1 0 00.88-.53 1 1 0 00-.42-1.35 107.51 107.51 0 00-11.08-4.94 1 1 0 00-.72 1.87 104.66 104.66 0 0110.88 4.84.92.92 0 00.46.11z" class="bfb92e40-c938-4774-8303-1e5542ab5b61"/><path d="M405.31 671.78a1 1 0 00.48-.12A95.64 95.64 0 00416 665.2a1 1 0 10-1.17-1.62 94.09 94.09 0 01-10 6.32 1 1 0 00.47 1.88z" class="bfb92e40-c938-4774-8303-1e5542ab5b61"/><path d="M452.94 618.54h.25a1 1 0 00.72-1.21c-.9-3.53-3.27-7-7-10.2a1 1 0 10-1.3 1.52c3.44 3 5.59 6 6.39 9.17a1 1 0 00.94.72z" class="bfb92e40-c938-4774-8303-1e5542ab5b61"/><path d="M432.71 647.85c-1.58 1.65-3 3.13-4.51 4.53s-2.72 2.56-4.06 3.74a1 1 0 00-.08 1.41 1 1 0 00.74.34 1 1 0 00.67-.25c1.35-1.21 2.74-2.48 4.11-3.8s3-2.92 4.58-4.59a1 1 0 000-1.41 1 1 0 00-1.45.03z" class="bfb92e40-c938-4774-8303-1e5542ab5b61"/><path d="M413.85 593.52a1 1 0 00.28-1.95c-3.73-1.13-7.65-2.2-11.66-3.17a1 1 0 00-1.21.74 1 1 0 00.74 1.2c4 1 7.86 2 11.56 3.14a.92.92 0 00.29.04z" class="bfb92e40-c938-4774-8303-1e5542ab5b61"/><path d="M449.83 628.43c-.34.55-.73 1.11-1.08 1.59-2.1 2.3-4.19 4.68-6.21 7l-1.77 2a1 1 0 00.08 1.42 1 1 0 00.67.25 1 1 0 00.74-.34l1.78-2c2-2.29 4.1-4.66 6.25-7 .45-.6.86-1.21 1.24-1.8a1 1 0 00-1.7-1.07z" class="bfb92e40-c938-4774-8303-1e5542ab5b61"/><path d="M270.43 674.3l1.09.67c2.7 1.62 5.63 3.21 9.51 5.16a1.06 1.06 0 00.45.11 1 1 0 00.45-1.9c-3.84-1.92-6.73-3.49-9.38-5.08l-1.05-.65a1 1 0 00-1.38.31 1 1 0 00.31 1.38z" class="bfb92e40-c938-4774-8303-1e5542ab5b61"/><path d="M264.19 642.89a1 1 0 00.91-.58 48.16 48.16 0 016.27-9.9 1 1 0 10-1.55-1.25 49.72 49.72 0 00-6.54 10.31 1 1 0 00.49 1.33 1 1 0 00.42.09z" class="bfb92e40-c938-4774-8303-1e5542ab5b61"/><path d="M295.35 605.59a118.41 118.41 0 006.34-10.3 1 1 0 00-1.76-1 116.88 116.88 0 01-6.23 10.13 1 1 0 00.26 1.39 1 1 0 00.57.17 1 1 0 00.82-.39z" class="bfb92e40-c938-4774-8303-1e5542ab5b61"/><path d="M291.35 684.09a1 1 0 00.45 1.34l1.44.72c3.06 1.51 6.22 3.08 9.35 4.57a1 1 0 00.43.1 1 1 0 00.43-1.9c-3.12-1.49-6.27-3-9.32-4.57l-1.44-.71a1 1 0 00-1.34.45z" class="bfb92e40-c938-4774-8303-1e5542ab5b61"/><path d="M287.92 613.81a1 1 0 00-1.41.12c-2.49 3-5.19 6-8 8.8a1 1 0 000 1.42 1 1 0 00.71.29 1 1 0 00.71-.3c2.87-2.9 5.61-5.9 8.13-8.92a1 1 0 00-.14-1.41z" class="bfb92e40-c938-4774-8303-1e5542ab5b61"/><path d="M261.11 652.41a1 1 0 00-1.09.9c-.1 1.07-.15 2.16-.15 3.24a36 36 0 00.19 3.74 15.17 15.17 0 001.56 5.31 1 1 0 00.9.55 1.06 1.06 0 00.48-.15 1 1 0 00.44-1.35 13 13 0 01-1.36-4.6 35.12 35.12 0 01-.18-3.54c0-1 .05-2 .14-3.06a1 1 0 00-.93-1.04z" class="bfb92e40-c938-4774-8303-1e5542ab5b61"/><path d="M390.22 587.76h.24a1 1 0 001-.77 1 1 0 00-.73-1.21 103.85 103.85 0 01-11.36-3.48 1 1 0 10-.7 1.88 107.92 107.92 0 0011.55 3.58z" class="bfb92e40-c938-4774-8303-1e5542ab5b61"/><path d="M383.06 680.68a1.25 1.25 0 00.32 0c4.27-1.44 8-2.74 11.35-4a1 1 0 00.58-1.29 1 1 0 00-1.29-.59c-3.34 1.25-7 2.56-11.28 4a1 1 0 00-.63 1.26 1 1 0 00.95.62z" class="bfb92e40-c938-4774-8303-1e5542ab5b61"/><path d="M313.63 695.63a34 34 0 0012 2.22h.13a1 1 0 000-2h-.15a32 32 0 01-11.24-2.09 1 1 0 00-1.29.59 1 1 0 00.55 1.28z" class="bfb92e40-c938-4774-8303-1e5542ab5b61"/><path d="M309 572.39a102.87 102.87 0 01-3.91 11.22 1 1 0 00.55 1.31 1 1 0 00.38.07 1 1 0 00.92-.61 105.48 105.48 0 004-11.44 1 1 0 00-.69-1.23 1 1 0 00-1.25.68z" class="bfb92e40-c938-4774-8303-1e5542ab5b61"/><path d="M368.05 579.38a1 1 0 00.47-1.89 81.14 81.14 0 01-10-6.28 1 1 0 00-1.18 1.62 85.06 85.06 0 0010.29 6.43 1 1 0 00.42.12z" class="bfb92e40-c938-4774-8303-1e5542ab5b61"/><path d="M312.38 537.14a1 1 0 001 .9h.1a1 1 0 00.9-1.09 53.3 53.3 0 00-1.38-8.19c-.5-1.47-.85-2.6-1.13-3.68a1 1 0 10-1.93.51c.29 1.11.64 2.28 1.15 3.78a52.42 52.42 0 011.29 7.77z" class="bfb92e40-c938-4774-8303-1e5542ab5b61"/><path d="M312.38 562h.16a1 1 0 001-.84 98.89 98.89 0 001.2-12.06 1 1 0 00-1-1 1 1 0 00-1 1 96.76 96.76 0 01-1.17 11.81 1 1 0 00.81 1.09z" class="bfb92e40-c938-4774-8303-1e5542ab5b61"/><path d="M371.34 682.44l-.29.1q-4.95 1.59-9.88 3.2l-1.25.41a1 1 0 00-.63 1.26 1 1 0 00.95.69.87.87 0 00.31-.05l1.25-.41q4.92-1.62 9.86-3.2l.29-.09a1 1 0 00-.61-1.91z" class="bfb92e40-c938-4774-8303-1e5542ab5b61"/><path d="M338.82 542.63a1 1 0 002 0v-.53-1.92c0-3.14-.13-6.37-.38-9.62a1 1 0 00-2 .16c.24 3.19.37 6.37.37 9.46v1.89z" class="bfb92e40-c938-4774-8303-1e5542ab5b61"/><path d="M332.82 507.79a1 1 0 00-1.19 1.61 13.43 13.43 0 015.19 8.39l.19 1.11a1 1 0 001 .84h.17a1 1 0 00.81-1.15l-.19-1.12a15.4 15.4 0 00-5.98-9.68z" class="bfb92e40-c938-4774-8303-1e5542ab5b61"/><path d="M348.5 689.81c-3.38 1.08-7.38 2.39-11.4 3.85a1 1 0 10.68 1.88c4-1.45 8-2.75 11.33-3.83a1 1 0 10-.61-1.9z" class="bfb92e40-c938-4774-8303-1e5542ab5b61"/><path d="M348.78 565.23a1 1 0 00.72-1.7 32 32 0 01-6.46-9.6 1 1 0 00-1.84.78 34.12 34.12 0 006.85 10.21 1 1 0 00.73.31z" class="bfb92e40-c938-4774-8303-1e5542ab5b61"/><path d="M311.12 514.52a.94.94 0 00.48.13 1 1 0 00.88-.53 14 14 0 018.6-6.68 1 1 0 00.71-1.22 1 1 0 00-1.23-.71 16.06 16.06 0 00-9.84 7.66 1 1 0 00.4 1.35z" class="bfb92e40-c938-4774-8303-1e5542ab5b61"/><path d="M258.36 444.39c7.22 2.52 15.09 3.45 24.75 2.9 10.66-.61 20.66-2.88 29.88-5.23a190.89 190.89 0 0050.58-21.17 51.74 51.74 0 0113.43-5.71c3.71-.94 6.21.86 8.65 6.23q2.22 4.92 4.49 9.82c3.32 7.24 6.76 14.73 9.93 22.17l.83 2c3.45 8.06 7 16.4 9.43 24.85 1.3 4.51 1.67 9.26 2.07 14.28.16 2.08.33 4.23.57 6.34l.2 1.75c.79 7.18 1.6 14.61 6.79 20.78 4.46 5.3 10.61 8 18.33 8a38.53 38.53 0 005.44-.4c17.37-2.48 30-8.17 39.67-17.91 7.52-7.57 10-17.33 12.39-26.77l.58-2.28c2.45-9.64 5-19.61 6.4-29.62 1.63-11.48-2-22.12-10.83-31.62-9-9.72-20.58-15.12-31.73-19.51-13.11-5.15-27.54-9-45.43-12a92.64 92.64 0 00-18.88-1c-4.85.2-8.26-2.11-10.44-7a83.62 83.62 0 01-5.41-17.53c-.89-4.46-1.43-9.11-1.95-13.6-.36-3-.72-6.19-1.2-9.28-1.13-7.41-8.95-14.86-17.69-13.75a39.71 39.71 0 01-6.2.11c-1 0-2-.06-3-.06h-.25a2.06 2.06 0 00-.92.1l-7.41 2.61c-5.46 1.9-11.1 3.88-16.61 5.93-11.47 4.26-20 13.31-26 27.64-6.66 15.82-16.31 31.39-30.36 49-4.18 5.23-9 11.33-13.52 17.61-2.43 3.37-2.34 6-1.83 7.62s1.77 3.48 5.25 4.7zm-.2-10.1c4.46-6.19 9.26-12.25 13.41-17.44 14.28-17.88 24.11-33.75 30.91-49.92 5.66-13.44 13.2-21.53 23.71-25.44 5.48-2 11.1-4 16.54-5.91l7.11-2.5h.16c1 0 1.94 0 2.91.06a43.46 43.46 0 006.83-.14c6.43-.83 12.4 4.91 13.24 10.39.46 3 .82 6.12 1.17 9.13.53 4.57 1.08 9.31 2 13.93a87.89 87.89 0 005.67 18.37c2.85 6.38 7.79 9.6 14.25 9.38a88.34 88.34 0 0118.07 1c17.6 3 31.78 6.71 44.62 11.76 10.72 4.22 21.8 9.38 30.27 18.51 8 8.58 11.25 18.11 9.8 28.34-1.39 9.8-3.89 19.66-6.32 29.2l-.58 2.27c-2.36 9.33-4.6 18.15-11.35 24.94-9 9.09-20.92 14.42-37.4 16.77-9 1.28-15.57-.74-20.14-6.18-4.4-5.24-5.12-11.75-5.88-18.65l-.19-1.77c-.23-2-.4-4.15-.56-6.19-.4-5-.8-10.17-2.21-15.07-2.5-8.69-6.11-17.15-9.6-25.32l-.83-1.95c-3.19-7.49-6.64-15-10-22.27q-2.25-4.89-4.48-9.8c-1.05-2.32-4-8.82-10.5-8.82a10.92 10.92 0 00-2.78.37 55.84 55.84 0 00-14.52 6.15A186.71 186.71 0 01312 438.18c-9 2.31-18.79 4.53-29.11 5.11-9.12.52-16.5-.33-23.21-2.68-1.06-.37-2.4-1.06-2.77-2.23s.09-2.5 1.25-4.09z" class="bfb92e40-c938-4774-8303-1e5542ab5b61"/><path d="M315.84 414.12a13.69 13.69 0 001.78-.13c11.5-1.65 19.85-7.69 24.79-18 3-6.19 3.48-12.95 1.52-20.68a12.07 12.07 0 00-11.93-9.22.64.64 0 00-.26 0 1.06 1.06 0 00-.53 0c-6.08 1.73-10.94 6.14-14.45 13.09a176.21 176.21 0 00-9.13 23.08c-1.11 3.32-.66 6.54 1.25 8.82a8.81 8.81 0 006.96 3.04zm-6.31-11.18a173.07 173.07 0 019-22.82c3.24-6.42 7.68-10.48 13.19-12.06a.88.88 0 00.24 0 10.14 10.14 0 0110 7.75c1.83 7.25 1.38 13.57-1.39 19.33-4.57 9.66-12.43 15.32-23.24 16.86-2.9.42-5.42-.38-6.92-2.17a7.06 7.06 0 01-.88-6.89z" class="bfb92e40-c938-4774-8303-1e5542ab5b61"/><path d="M424.77 447.07c6.52 9.74 13.52 19.39 20.3 28.71l.63.88a11 11 0 009 4.66h.41a12.75 12.75 0 0010.19-6.23c4.83-7.76 9.46-17.24 7.19-28.7-2.2-11.13-9.3-18.85-21.7-23.59a60.23 60.23 0 00-11.45-2.74c-1.7-.29-3.45-.59-5.15-.95a37.48 37.48 0 00-1 0c-11 3.54-13.23 6.82-12.06 17.54a24 24 0 003.64 10.42zm9-26c1.73.36 3.51.67 5.22 1a59.24 59.24 0 0111.08 2.63c11.7 4.48 18.39 11.71 20.45 22.12 2.13 10.78-2.31 19.83-6.93 27.26a10.59 10.59 0 01-8.56 5.28 9.06 9.06 0 01-7.72-3.84l-.63-.87c-6.77-9.31-13.76-18.94-20.26-28.65a21.78 21.78 0 01-3.32-9.49c-1.1-9.76.63-12.22 10.64-15.45z" class="bfb92e40-c938-4774-8303-1e5542ab5b61"/><path d="M221 457.82a4.65 4.65 0 001.34-2 37.24 37.24 0 00.84-4.73c.08-.62.16-1.24.26-1.86a1 1 0 00-.84-1.14c-.64-.1-1.29-.26-2-.42a11 11 0 00-4.85-.45c-3 .62-5.94 1.45-8.81 2.26-3.34.93-6.78 1.89-10.21 2.53-10.84 2-21.75 3.68-32.43 5l-5 .63c-11.11 1.4-22.6 2.85-33.92 3.27-19.57.75-37.49-5.84-53.36-19.53-7.14-6.16-14.89-12.44-24.29-15.68a88.45 88.45 0 00-10.06-2.59c-1.51-.33-3-.65-4.51-1a1 1 0 00-.48 0 1 1 0 00-.45 0c-5.7 1.14-10.21 4.44-14.2 10.37C13.73 439 8.2 446.17 0 451.05v2.31c9.1-5.08 15.09-12.82 19.75-19.76 3.73-5.55 7.71-8.49 12.93-9.53h.07c1.51.36 3 .69 4.56 1a87.48 87.48 0 019.83 2.53c9.06 3.12 16.64 9.27 23.63 15.3 16.27 14 34.71 20.78 54.75 20 11.4-.43 22.94-1.88 34.09-3.29l5-.62c10.72-1.33 21.67-3 32.55-5 3.52-.65 7-1.62 10.39-2.57 2.83-.79 5.77-1.61 8.68-2.23a9.65 9.65 0 014 .44c.38.09.77.19 1.17.27 0 .32-.09.64-.13.95a34.4 34.4 0 01-.78 4.47 3.54 3.54 0 01-.85 1.13 8.31 8.31 0 00-.93 1.1c-11 16.56-14.33 35.44-10 57.71 1.48 7.63 3.66 15.23 5.78 22.58 1 3.61 2.11 7.34 3.08 11 2.61 9.86-4.37 25.52-11.48 30-2.46 1.54-4.41 1.51-6.33-.11a110.66 110.66 0 01-8.8-8.66l-.67-.7a50.84 50.84 0 00-19.41-12.7 118.27 118.27 0 00-28.2-6.71 140.87 140.87 0 00-16.23-1 129.09 129.09 0 00-20.06 1.56c-2.72.43-5.47.94-8.13 1.44-8.47 1.58-17.22 3.21-26.11 2.18-7-.8-14.17-2-19.26-7.41a95.18 95.18 0 01-13.4-17.23C31 515 19 504.56 2.9 497.63l-1.16-.5-1.74-.74v2.17l1 .44 1.16.5c15.74 6.75 27.4 16.9 35.65 31a96.78 96.78 0 0013.62 17.65c5.55 5.87 13.16 7.19 20.48 8 9.19 1.06 18.09-.6 26.7-2.21 2.65-.49 5.38-1 8.08-1.42a131.24 131.24 0 0135.75-.6 116.86 116.86 0 0127.73 6.6 48.94 48.94 0 0118.66 12.2l.66.7a109.91 109.91 0 009 8.82 6.62 6.62 0 004.31 1.7 8.18 8.18 0 004.37-1.43c7.81-4.93 15.2-21.44 12.35-32.22-1-3.69-2.05-7.43-3.09-11.05-2.1-7.31-4.27-14.87-5.73-22.41-4.21-21.72-1-40.11 9.71-56.22a7.17 7.17 0 01.59-.79z" class="bfb92e40-c938-4774-8303-1e5542ab5b61"/><path d="M268.37 6.07A40.92 40.92 0 00271.06 0h-2.12a38.1 38.1 0 01-2.33 5.11c-8.93 16.33-18.55 29.65-29.4 40.72-13.28 13.55-17.6 30.37-13.58 52.91.51 2.88 1.07 5.75 1.62 8.62 2.21 11.41 4.5 23.21 3.78 35.17-1.11 18.55-11 23.57-19.16 24.52a151.78 151.78 0 01-16.39 1h-.17c-13 0-22.16-8.44-23.35-21.54-1.33-14.61-3.74-26.44-7.6-37.23-4.73-13.28-9.5-27.43-11.21-42.28-1.93-16.76-5.84-29.9-12.31-41.35-4.79-8.46-6.3-17-4.57-25.6h-2c-1.67 8.92-.08 17.93 4.81 26.59 6.33 11.2 10.17 24.1 12.06 40.59 1.74 15.11 6.55 29.41 11.32 42.77 3.8 10.62 6.17 22.3 7.49 36.73 1.29 14.21 11.22 23.36 25.34 23.36h.18a150.81 150.81 0 0016.61-1c12.56-1.46 20-10.83 20.93-26.38.73-12.21-1.58-24.14-3.82-35.67-.55-2.86-1.1-5.72-1.61-8.59-3.9-21.85.25-38.11 13-51.16C249.62 36 259.34 22.56 268.37 6.07z" class="bfb92e40-c938-4774-8303-1e5542ab5b61"/><path d="M165.54 475.69a103.51 103.51 0 00-12.15-.86 1.5 1.5 0 000 3 100.58 100.58 0 0111.78.83h.22a1.5 1.5 0 00.21-3z" class="bfb92e40-c938-4774-8303-1e5542ab5b61"/><path d="M140.55 532.74a1.49 1.49 0 001.49 1.42h.09c4.44-.26 8.39-.66 12.08-1.23a1.5 1.5 0 00-.46-3c-3.59.55-7.45.94-11.79 1.2a1.5 1.5 0 00-1.41 1.61z" class="bfb92e40-c938-4774-8303-1e5542ab5b61"/><path d="M183.61 502.29c-.06.93-.11 1.85-.13 2.77a26.77 26.77 0 01-1.48 8.54 1.51 1.51 0 00.9 1.93 1.48 1.48 0 00.51.09 1.5 1.5 0 001.41-1 29.91 29.91 0 001.67-9.51c0-.88.07-1.76.13-2.72a1.47 1.47 0 00-1.41-1.55 1.55 1.55 0 00-1.6 1.45z" class="bfb92e40-c938-4774-8303-1e5542ab5b61"/><path d="M177.42 479.78a1.5 1.5 0 10-1.69 2.48 17.22 17.22 0 016.4 8.79 1.52 1.52 0 001.41 1 1.58 1.58 0 00.52-.09A1.52 1.52 0 00185 490a20.36 20.36 0 00-7.58-10.22z" class="bfb92e40-c938-4774-8303-1e5542ab5b61"/><path d="M165.24 527.38a1.5 1.5 0 00.43 2.94 1.31 1.31 0 00.44-.07c1.17-.35 2.32-.74 3.43-1.14a28.47 28.47 0 007.83-4.23 1.5 1.5 0 00-1.85-2.37 25.42 25.42 0 01-7 3.78c-1.06.38-2.17.71-3.28 1.09z" class="bfb92e40-c938-4774-8303-1e5542ab5b61"/><path d="M93 484.28a60.6 60.6 0 00-10.93 5.58 1.5 1.5 0 00.81 2.76 1.53 1.53 0 00.82-.24 58 58 0 0110.4-5.31 1.5 1.5 0 10-1.1-2.79z" class="bfb92e40-c938-4774-8303-1e5542ab5b61"/><path d="M74.8 520.91a1.5 1.5 0 10-2.49 1.67 25.35 25.35 0 009.47 8.36 1.51 1.51 0 00.68.16 1.5 1.5 0 00.68-2.84 22.3 22.3 0 01-8.34-7.35z" class="bfb92e40-c938-4774-8303-1e5542ab5b61"/><path d="M75 498a1.51 1.51 0 00-2.09.37 21.53 21.53 0 00-4.06 12 1.51 1.51 0 001.47 1.54 1.5 1.5 0 001.5-1.47 18.51 18.51 0 013.52-10.37A1.51 1.51 0 0075 498z" class="bfb92e40-c938-4774-8303-1e5542ab5b61"/><path d="M116.5 478.21c-3.29.59-7.62 1.4-11.85 2.44a1.5 1.5 0 00.36 3 1.39 1.39 0 00.35 0c4.16-1 8.42-1.81 11.67-2.39a1.5 1.5 0 00-.53-3z" class="bfb92e40-c938-4774-8303-1e5542ab5b61"/><path d="M92.57 532a1.5 1.5 0 001.43 1.61c4.66.24 8.47.41 12 .55h.06a1.5 1.5 0 00.06-3c-3.53-.14-7.33-.31-12-.55a1.5 1.5 0 00-1.55 1.39z" class="bfb92e40-c938-4774-8303-1e5542ab5b61"/><path d="M118.08 531.51a1.5 1.5 0 100 3c2.54 0 5 .07 7.45.07h4.59a1.5 1.5 0 000-3c-3.99.02-7.9.01-12.04-.07z" class="bfb92e40-c938-4774-8303-1e5542ab5b61"/><path d="M141.42 474.6h-.37a1.06 1.06 0 00-.31 0 1.48 1.48 0 00-.47 0l-6.37.91-5.51.77a1.5 1.5 0 00.21 3h.22l5.5-.77 6.38-.91H141.27a1.49 1.49 0 001.55-1.44 1.51 1.51 0 00-1.4-1.56z" class="bfb92e40-c938-4774-8303-1e5542ab5b61"/><path d="M12.12 161.65a134 134 0 01-.93-16.19c0-2.62-.09-5.33-.21-8-.3-6.61-.6-13.09-1-19.55a28.34 28.34 0 00-10-20v9a22.07 22.07 0 014 11.45c.41 6.41.71 12.86 1 19.44.12 2.6.17 5.27.21 7.85a140 140 0 001 16.91c1.61 11.51 1.11 20.17-1.61 28.1A57.46 57.46 0 010 200.5v11a73.84 73.84 0 0010.24-19c3.05-8.84 3.63-18.36 1.88-30.85z" class="bfb92e40-c938-4774-8303-1e5542ab5b61"/><path d="M529.22 179.7c-1.86 1.62-3.79 3.29-5.75 4.8a1 1 0 00-.19 1.41 1 1 0 001.41.18c2-1.55 4-3.24 5.84-4.88l1.59-1.38a21.91 21.91 0 001.76-1.69 1 1 0 10-1.46-1.36 19.56 19.56 0 01-1.6 1.53z" class="bfb92e40-c938-4774-8303-1e5542ab5b61"/><path d="M358.33 135.24c1.58 1.59 3.21 3.18 4.87 4.73a1 1 0 00.68.27 1 1 0 00.68-1.73c-1.63-1.53-3.25-3.11-4.81-4.68a36.64 36.64 0 01-3.35-3.83 1 1 0 10-1.6 1.2 39.62 39.62 0 003.53 4.04z" class="bfb92e40-c938-4774-8303-1e5542ab5b61"/><path d="M423.44 84.18c.7.66 1.44 1.31 2.18 1.93A1 1 0 00427 86a1 1 0 00-.13-1.41c-.71-.59-1.42-1.22-2.1-1.85-2-1.9-4.16-4-6.5-6.36a1 1 0 00-1.43 1.4c2.4 2.38 4.54 4.48 6.6 6.4z" class="bfb92e40-c938-4774-8303-1e5542ab5b61"/><path d="M419 153.24h4.95c2.56.07 4.84.16 7 .28h.05a1 1 0 00.06-2c-2.16-.13-4.46-.22-7-.29-1.68 0-3.36-.06-5.05 0a1 1 0 00-1 1 1 1 0 00.99 1.01z" class="bfb92e40-c938-4774-8303-1e5542ab5b61"/><path d="M358.08 61.77a1 1 0 10-1.82-.84c-.6 1.33-1.19 2.78-1.74 4.31-.85 2.32-1.62 4.72-2.32 7.13a1 1 0 00.69 1.24.84.84 0 00.27 0 1 1 0 001-.72c.69-2.37 1.45-4.73 2.28-7 .49-1.45 1.06-2.89 1.64-4.12z" class="bfb92e40-c938-4774-8303-1e5542ab5b61"/><path d="M375.46 45.86a1 1 0 00-1.2-.75 23.9 23.9 0 00-11 5.71 1 1 0 00-.06 1.41 1 1 0 00.73.33 1 1 0 00.68-.27 21.92 21.92 0 0110.08-5.23 1 1 0 00.77-1.2z" class="bfb92e40-c938-4774-8303-1e5542ab5b61"/><path d="M382.24 48.1a27 27 0 019.29 4.39 1 1 0 00.58.19 1 1 0 00.82-.42 1 1 0 00-.24-1.4 29 29 0 00-10-4.7c-.44-.11-.87-.2-1.31-.28a1 1 0 00-.37 2c.44.04.83.12 1.23.22z" class="bfb92e40-c938-4774-8303-1e5542ab5b61"/><path d="M374.41 149.8a23 23 0 008.45 4.34 1.26 1.26 0 00.27 0 1 1 0 00.26-2 20.84 20.84 0 01-7.72-4l-2.17-1.81a1 1 0 00-1.29 1.54z" class="bfb92e40-c938-4774-8303-1e5542ab5b61"/><path d="M523.74 143.94q-3.07-3.58-6.19-7.13a1 1 0 00-1.51 1.31q3.11 3.56 6.18 7.13l1.69 1.94a1 1 0 00.75.33 1 1 0 00.66-.25 1 1 0 00.09-1.41c-.56-.64-1.12-1.27-1.67-1.92z" class="bfb92e40-c938-4774-8303-1e5542ab5b61"/><path d="M395 154.84h.07c2.76-.18 5.57-.41 8.29-.64l3.68-.3a1 1 0 10-.16-2l-3.69.31c-2.71.22-5.51.45-8.26.63a1 1 0 00.07 2z" class="bfb92e40-c938-4774-8303-1e5542ab5b61"/><path d="M493.32 110a51.31 51.31 0 00-10.39-6.4 1 1 0 00-.84 1.82 49.2 49.2 0 0110 6.14 1 1 0 001.4-.16 1 1 0 00-.17-1.4z" class="bfb92e40-c938-4774-8303-1e5542ab5b61"/><path d="M471.37 99.74c-1.36-.31-2.78-.57-4.2-.8-2.53-.4-5.09-.87-7.61-1.4a1 1 0 00-.41 2c2.55.53 5.15 1 7.71 1.42 1.38.22 2.75.48 4.07.77a.86.86 0 00.22 0 1 1 0 00.22-2z" class="bfb92e40-c938-4774-8303-1e5542ab5b61"/><path d="M465 159.9a1 1 0 00.44 1.34 51.82 51.82 0 019.84 6.4 1 1 0 001.41-.13 1 1 0 00-.13-1.41 54 54 0 00-10.22-6.65 1 1 0 00-1.34.45z" class="bfb92e40-c938-4774-8303-1e5542ab5b61"/><path d="M490.67 181.68c-1.66-1.83-3.38-3.72-4.85-5.71l-.83-1.09a1 1 0 10-1.58 1.22l.8 1.06c1.53 2.07 3.29 4 5 5.87l1.56 1.72.49.54a1 1 0 00.74.32 1 1 0 00.73-1.67l-.47-.52z" class="bfb92e40-c938-4774-8303-1e5542ab5b61"/><path d="M442.79 154.65a86.22 86.22 0 0111.62 2.35 1.24 1.24 0 00.27 0 1 1 0 00.27-2 90.13 90.13 0 00-11.88-2.43 1 1 0 00-.28 2z" class="bfb92e40-c938-4774-8303-1e5542ab5b61"/><path d="M502.14 190.27a1 1 0 00-1.26.65 1 1 0 00.65 1.26 19.21 19.21 0 005.84.91 21.77 21.77 0 006.56-1.06 1 1 0 10-.6-1.9 18.23 18.23 0 01-11.19.14z" class="bfb92e40-c938-4774-8303-1e5542ab5b61"/><path d="M536.16 166.64a1 1 0 001 .91h.09a1 1 0 00.9-1.09 21.14 21.14 0 00-3.92-9.87l-1-1.47a1 1 0 00-1.61 1.18c.34.47.68.94 1 1.42a19.25 19.25 0 013.54 8.92z" class="bfb92e40-c938-4774-8303-1e5542ab5b61"/><path d="M447.71 96.62a1 1 0 001-.72 1 1 0 00-.68-1.24c-2.89-.83-5.78-1.76-8.59-2.75-.86-.3-1.75-.66-2.63-1a1 1 0 00-.82 1.82c.93.42 1.87.8 2.79 1.12 2.85 1 5.77 1.94 8.69 2.78a1 1 0 00.24-.01z" class="bfb92e40-c938-4774-8303-1e5542ab5b61"/><path d="M409.28 69.4a1 1 0 00.69-.28 1 1 0 000-1.41l-.69-.73c-2.48-2.62-5-5.34-7.6-8a1 1 0 00-1.44 1.4c2.55 2.62 5.11 5.32 7.58 7.94l.69.73a1 1 0 00.77.35z" class="bfb92e40-c938-4774-8303-1e5542ab5b61"/><path d="M348.14 107.19a1 1 0 00-1 1 41.37 41.37 0 002 12.09 1 1 0 00.95.69 1.12 1.12 0 00.31 0 1 1 0 00.64-1.26 39.52 39.52 0 01-1.89-11.51 1 1 0 00-1.01-1.01z" class="bfb92e40-c938-4774-8303-1e5542ab5b61"/><path d="M502 118.6a1 1 0 10-1.55 1.27c2.28 2.78 4.74 5.71 7.75 9.19a1 1 0 001.41.11 1 1 0 00.1-1.41c-3.03-3.48-5.48-6.39-7.71-9.16z" class="bfb92e40-c938-4774-8303-1e5542ab5b61"/><path d="M350.61 83.35a1 1 0 00-1.17.8c-.7 3.84-1.26 7.87-1.65 12a1 1 0 00.89 1.09h.1a1 1 0 001-.9c.38-4 .93-8 1.63-11.8a1 1 0 00-.8-1.19z" class="bfb92e40-c938-4774-8303-1e5542ab5b61"/><path d="M389.39 106.54a8.19 8.19 0 00.83 0 4.78 4.78 0 003.16-1 5.36 5.36 0 001.65-3.91c.39-6.1-3.09-10.6-9.32-12a1.06 1.06 0 00-.47 0 1 1 0 00-.65 0c-4.93 2.13-3.95 6.26-3.24 9.27.07.29.14.57.2.86.88 3.96 3.67 6.36 7.84 6.78zm-6.09-8.06c-.8-3.37-1.14-5.52 2-6.92 5.27 1.22 8.1 4.86 7.77 10a3.42 3.42 0 01-.95 2.51 3.24 3.24 0 01-2.49.51c-3.29-.33-5.4-2.13-6.08-5.19z" class="bfb92e40-c938-4774-8303-1e5542ab5b61"/><path d="M470 5.07a7.18 7.18 0 01-2.76 6 7 7 0 01-6.42.58C456.89 10.3 453.16 5.72 453 2c0-.75-.07-1.42-.08-2h-2c0 .66 0 1.36.07 2.14.21 4.54 4.42 9.76 9.17 11.39a10.76 10.76 0 003.49.62 8.08 8.08 0 004.73-1.46A9.1 9.1 0 00472 5.1a22.78 22.78 0 00-.48-5.1h-2a21 21 0 01.48 5.07z" class="bfb92e40-c938-4774-8303-1e5542ab5b61"/><path d="M70.09 129.09a1 1 0 00-.35 0 1 1 0 00-.67.06c-4.18 1.94-7 4.59-8.1 7.67a10.4 10.4 0 00.61 8.16 7.82 7.82 0 005.38 4.5 7 7 0 001.43.15 7.15 7.15 0 004.73-1.85c3.47-3 4.93-6.51 4.33-10.37-.51-3.27-1.83-7.73-7.36-8.32zm1.71 17.21a5.07 5.07 0 01-4.43 1.26 5.86 5.86 0 01-4-3.39 8.5 8.5 0 01-.54-6.64c.93-2.53 3.32-4.77 6.91-6.47h.12c3.3.35 4.92 2.28 5.59 6.66.55 3.2-.69 6-3.65 8.58z" class="bfb92e40-c938-4774-8303-1e5542ab5b61"/><path d="M47.48 8.76c-.86 7.83-5.23 14.74-11.42 18C23.82 33.32 12 36 0 34.88v2c1.67.14 3.34.23 5 .23 10.61 0 21.33-2.86 32-8.55C43.76 25 48.54 17.45 49.47 9a26.05 26.05 0 00-.55-9h-2.06a24.13 24.13 0 01.62 8.76z" class="bfb92e40-c938-4774-8303-1e5542ab5b61"/><path d="M68.24 11.51c-1 9-2.51 19.53-6.22 29.73-4.24 11.67-11.62 17.51-22.56 17.85-3.15.1-6.3.23-9.45.36C23.12 59.74 16 60 9 60c-3.29 0-6.26-.18-9-.45v2c2.75.26 5.71.41 9 .44h1.81c6.46 0 13-.27 19.3-.53 3.14-.13 6.29-.26 9.43-.36 11.85-.37 19.83-6.64 24.38-19.17 3.78-10.4 5.32-21.1 6.33-30.19A61.1 61.1 0 0070.44 0h-2a58.78 58.78 0 01-.2 11.51z" class="bfb92e40-c938-4774-8303-1e5542ab5b61"/><path d="M301.48 269.27a13.92 13.92 0 002.68-.27l.79-.15c3.31-.63 6.73-1.28 9.5-3.05 8.3-5.31 16.73-11.2 25.08-17.49 2.08-1.57 4-3.27 3.6-5.08-.29-1.49-1.86-2.49-5.42-3.46a82.85 82.85 0 00-12.24-2c-1.76-.2-3.58-.41-5.34-.66a1 1 0 00-.39 0 .93.93 0 00-.44 0c-1.1.2-2.2.42-3.3.63-2.35.46-4.79.94-7.18 1.35a23.84 23.84 0 00-15.06 9.43 14.29 14.29 0 00-2 14.38 10.12 10.12 0 009.72 6.37zm-6.14-19.52a21.91 21.91 0 0113.81-8.69c2.43-.41 4.87-.89 7.24-1.35l3.28-.64h.18c1.79.25 3.62.46 5.39.66a81.14 81.14 0 0111.95 2c3.53 1 3.94 1.7 4 1.91s-.06 1-2.84 3.1c-8.31 6.26-16.71 12.12-25 17.41-2.44 1.56-5.67 2.18-8.79 2.77l-.79.15c-4.74.91-8.56-.92-10.22-4.9a12.32 12.32 0 011.79-12.42z" class="bfb92e40-c938-4774-8303-1e5542ab5b61"/><path d="M191.47 29.77a11.58 11.58 0 007.2 2.45c3.7 0 7.39-1.57 10.77-3.21 12.7-6.2 21.27-15.94 25.62-29H233c-4.25 12.24-12.41 21.37-24.39 27.21-5.28 2.57-10.86 4.77-15.88 1A47.26 47.26 0 01174.86 0h-2a49.21 49.21 0 0018.61 29.77z" class="bfb92e40-c938-4774-8303-1e5542ab5b61"/><path d="M88.15 0h-2c-.06 2.66-.2 5.33-.42 8-.77 9.49-1.27 20.69.84 31.77 1.55 8.13 5.05 15.9 11 24.46a125.7 125.7 0 019.92 16.84 66.1 66.1 0 015.51 40.85c-.84 4.88-1.57 9.86-2.27 14.67-1.12 7.66-2.27 15.59-3.92 23.25-2.5 11.68-9 20-19.27 24.87a80.28 80.28 0 01-34.87 7.52h-.22c-8 0-12.83-3.13-14.91-9.5-3.14-9.59-6.7-20.47-8.3-31.33-1.1-7.45-.53-15.33 0-23 .1-1.26.19-2.53.27-3.79.49-7.2.51-15.74-3-24.5-4.6-11.33-14.22-16.07-23.69-20-.91-.29-1.82-.65-2.82-1.02v2.15c.7.27 1.4.53 2.09.82 9.07 3.72 18.29 8.24 22.6 18.85 3.4 8.39 3.37 16.65 2.9 23.62q-.14 1.88-.27 3.78c-.57 7.73-1.15 15.72 0 23.38 1.62 11 5.21 22 8.38 31.66 2.35 7.2 8 10.86 16.81 10.88h.22a82.23 82.23 0 0035.72-7.71c10.88-5.11 17.74-13.94 20.38-26.26 1.66-7.73 2.82-15.69 3.94-23.38.7-4.8 1.42-9.77 2.26-14.62a68 68 0 00-5.7-42.07 127.08 127.08 0 00-10.1-17.12c-5.81-8.31-9.2-15.84-10.7-23.68-2.06-10.85-1.53-21.88-.81-31.24.22-2.72.37-5.43.43-8.15z" class="bfb92e40-c938-4774-8303-1e5542ab5b61"/><path d="M119.14 412.71a36.4 36.4 0 0016.7 4.56 25.7 25.7 0 0016.83-6.27c4-3.31 7-7.89 9.43-11.94 2.14-3.52 4-7.25 5.77-10.85 1.09-2.21 2.22-4.48 3.4-6.67 5.76-10.72 15.18-16.75 30.56-19.54a148.59 148.59 0 0019.24-4.61c9.88-3.21 15.66-14.61 16.08-23.7 1-21.75-11.69-29.67-24.8-35.92-12.61-6-26.7-8.85-44.35-8.94a168.5 168.5 0 01-22-2.07c-4.18-.58-8.5-1.18-12.78-1.59a81.06 81.06 0 00-9.84-.15c-1.45 0-2.9.07-4.34.07h-.25a2.11 2.11 0 00-.66 0c-19.29 4-35.2 15.74-48.63 35.94-11.75 17.67-11.55 34.37.63 51.05 11.7 16.12 28.2 29.78 49.01 40.63zm-46.36-89.43c12.79-19.23 27.83-30.42 46-34.21h.23c1.47 0 3 0 4.43-.07a78.61 78.61 0 019.37.13c4.19.4 8.47 1 12.61 1.57a170.89 170.89 0 0022.58 2.13c17 .09 30.59 2.8 42.65 8.55 12.39 5.91 23.43 12.81 22.53 32.12-.37 7.86-5.46 17.53-13.32 20.09a145.41 145.41 0 01-18.72 4.47c-16.47 3-27.07 9.86-33.38 21.59-1.2 2.24-2.34 4.55-3.45 6.78-1.75 3.53-3.56 7.18-5.61 10.56-2.28 3.76-5.08 8-8.58 10.94-8 6.71-17.8 7.12-29.11 1.23-20.26-10.56-36.3-23.82-47.68-39.4-11.24-15.37-11.41-30.14-.55-46.48z" class="bfb92e40-c938-4774-8303-1e5542ab5b61"/><path d="M502.05 1.65c.17 2.6.58 5.21 1 7.74s.75 4.85.92 7.27c1.15 15.89-4.27 23.71-17.58 25.36a102.09 102.09 0 01-18.8.9 50.18 50.18 0 01-15.63-3.4C440.19 34.7 432.22 25.35 425.35 16a61.17 61.17 0 01-8.57-16h-2.12a62.58 62.58 0 009.08 17.14c7 9.63 15.24 19.22 27.43 24.23a52.45 52.45 0 0016.26 3.55c1.53.09 3 .13 4.55.13a119.67 119.67 0 0014.62-1c18.95-2.35 20.11-16.82 19.34-27.49-.18-2.5-.57-5-.95-7.44s-.78-5-.94-7.56C504 1 504 .51 504 0h-2c0 .55 0 1.1.05 1.65z" class="bfb92e40-c938-4774-8303-1e5542ab5b61"/><path d="M98.87 368.82a29.13 29.13 0 0016.55 7.18h1.2a14.52 14.52 0 0012.1-6.42c8.17-12 14.2-21.43 19.53-30.55 2.55-4.37 3.36-7.81 2.55-10.82s-3.41-5.78-8.3-8.54-10.06-2.77-14.55-2.59a.71.71 0 00-.21 0 1 1 0 00-.57 0 59.66 59.66 0 00-33 26.46c-5.5 9.27-1.68 19.93 4.7 25.28zm-3-24.2a57.63 57.63 0 0131.86-25.56 1.36 1.36 0 00.29 0c4.21-.17 9.08-.15 13.49 2.34s6.66 4.76 7.35 7.31-.08 5.41-2.34 9.29c-5.32 9.08-11.32 18.47-19.46 30.43a12.55 12.55 0 01-11.48 5.57 27.07 27.07 0 01-15.42-6.68c-4.59-3.88-9.8-13.43-4.28-22.7z" class="bfb92e40-c938-4774-8303-1e5542ab5b61"/><path d="M1017.8 312.26V307a42.54 42.54 0 01-9.07-10.95c-4.86-8.76-5.66-14.52 4-19.92a57.26 57.26 0 005.07-3.24v-5a58.22 58.22 0 01-7 4.72c-13.16 7.35-10.44 16.53-5.55 25.35 3.15 5.75 7.58 10.25 12.55 14.3z" class="bfb92e40-c938-4774-8303-1e5542ab5b61"/><path d="M49.5 370.17c-6.71-7.13-12.07-16.32-15.93-27.31-4.66-13.26-14.45-21.55-23.41-27.92A115.55 115.55 0 010 307.07v5.26c2.51 2 5.15 4 7.84 5.87 8.88 6.31 17.68 13.82 22 26 4 11.52 9.69 21.19 16.78 28.73s14.6 15.35 22.65 22.58c10.88 9.79 21.06 18.33 31.11 26.09 11.77 9.09 23.63 13.53 36.21 13.53h2c17.16-.64 31.12-7.44 41.49-20.21 2.59-3.19 5.36-6.44 8.45-9.94 6.88-7.78 16.12-12.35 28.24-14a110.63 110.63 0 0022.87-5.14c13.7-4.91 22.31-15.8 26.32-33.28l.63-2.69c.7-2.91 1.41-5.92 1.87-9 2-13.59 10-22 25.11-26.39 15.35-4.49 27.46-9.95 38.11-17.19l1.07-.73c6.8-4.63 13.84-9.42 21.22-13 6.54-3.19 13.45-6 20.14-8.68 4.34-1.75 8.83-3.56 13.19-5.48 16.67-7.3 28.07-16.09 35.87-27.67 1.47-2.18 2.94-4.34 4.42-6.51 4-5.88 8.15-12 12-18.1a22.11 22.11 0 003.28-9.32 16.06 16.06 0 00-5.87-14.5c-4.59-3.65-11-4.58-17.13-2.5-3.4 1.15-6.69 2.64-9.87 4.08-2.53 1.15-5.14 2.33-7.74 3.31-8.89 3.35-18.46 4.37-30.1 3.22a168.41 168.41 0 01-19.9-3.61 180.94 180.94 0 00-18.56-3.47 198.42 198.42 0 00-21-1c-4.29 0-8.74-.09-13.07-.31-6.92-.36-15.76-1.58-22.82-7.89-5-4.45-8.14-10.48-10.19-19.53-2.54-11.19-2.34-21.16.62-30.48 2.23-7 7.9-10.09 16-8.67a81.35 81.35 0 0017.83 1.55c9.44-.43 16.4-5.83 21.26-16.52a122 122 0 009.82-36.07c.18-1.47.35-2.93.51-4.4 1-9 2-17.55 6.45-25.45a58.3 58.3 0 0119-20.7c8.05-5.28 16.38-5.26 24.74.06A102.85 102.85 0 01398 36.63c5.18 4.85 10.26 10 15.18 15 3.38 3.43 6.88 7 10.39 10.4 10.12 9.89 22.3 15.2 37.23 16.23a232.19 232.19 0 0131.7 4.46c11.17 2.36 20.33 9.24 27.22 20.46 5.79 9.41 12.91 20 24.1 27.09 1.82 1.33 33.23 23.46 66 4.07 11.61-6 16.16-15.52 13.89-29C622 95.1 613.47 87 601.42 84.14c-21-7-25.76-16.91-39-81-.22-1.07-.42-2.13-.59-3.18h-4.03c.21 1.31.45 2.64.73 4 12.79 62 17.79 76 41.71 84l.17.05c10.5 2.47 17.92 9.34 19.36 17.93 2 11.76-1.79 19.66-11.84 24.84l-.1.06c-31.22 18.54-61.34-3.62-61.64-3.85l-.14-.1c-10.5-6.58-17.32-16.79-22.88-25.84-7.49-12.18-17.52-19.68-29.8-22.27a235.58 235.58 0 00-32.25-4.54c-13.94-1-25.3-5.91-34.71-15.1-3.49-3.41-7-6.93-10.34-10.35-4.95-5-10.06-10.18-15.29-15.08A107.19 107.19 0 00385 21.5c-9.68-6.16-19.73-6.17-29.08 0a62.09 62.09 0 00-20.29 22.08c-4.87 8.61-5.92 17.94-6.94 27-.17 1.45-.33 2.91-.51 4.35a118.2 118.2 0 01-9.49 34.91c-4.24 9.32-9.89 13.83-17.8 14.18a77.18 77.18 0 01-17-1.43c-10.13-1.79-17.58 2.37-20.45 11.4-3.18 10-3.42 20.67-.71 32.58 1.51 6.67 4.18 15.16 11.43 21.63 8 7.13 17.7 8.5 25.27 8.89 4.41.23 8.9.28 13.24.32a194.15 194.15 0 0120.6.94 181 181 0 0118.16 3.4 171.91 171.91 0 0020.37 3.69c12.29 1.22 22.43.12 31.91-3.46 2.73-1 5.4-2.23 8-3.4a100.75 100.75 0 019.51-3.94c4.84-1.65 9.83-1 13.35 1.84a12.15 12.15 0 014.38 11 18 18 0 01-2.68 7.58c-3.85 6.07-8 12.13-12 18-1.48 2.17-3 4.34-4.42 6.52-7.37 10.92-18.22 19.26-34.16 26.25-4.32 1.89-8.78 3.69-13.09 5.43-6.75 2.73-13.72 5.54-20.39 8.8-7.64 3.73-14.8 8.6-21.73 13.32l-1.06.72c-10.29 7-22 12.29-37 16.66-16.55 4.83-25.69 14.53-27.95 29.64-.43 2.87-1.12 5.79-1.8 8.62-.21.91-.43 1.82-.64 2.73-3.73 16.27-11.28 25.93-23.77 30.41a107 107 0 01-22 4.93c-13.12 1.76-23.16 6.76-30.71 15.29-3.13 3.54-5.93 6.83-8.55 10.07-9.62 11.84-22.58 18.14-38.54 18.73-12.37.46-24-3.68-35.63-12.66-10-7.7-20.07-16.17-30.88-25.89-7.95-7.24-15.5-15.07-22.45-22.46z" class="bfb92e40-c938-4774-8303-1e5542ab5b61"/><path d="M107.2 31.88l.67 1.51c1.72 3.89 3.49 7.92 6.13 11.34 14.11 18.35 19.65 40.22 23.2 59.19 2.5 13.31 1 26.35-.74 37.34-2.19 13.59-1.83 25.48 1.11 36.35 4.13 15.29 12.37 19.31 26.13 21.38 5.34.81 10.79 1.39 16.06 1.95a239.77 239.77 0 0123.78 3.32c17.66 3.68 28.75 14.22 32.94 31.32 3.08 12.56 1.19 22-6 29.64a11.17 11.17 0 01-9.37 3.83c-6.12-.49-12.33-1.12-18.35-1.74l-7.12-.71c-.5-.05-1-.13-1.51-.2a23 23 0 00-3.17-.29h-31.49c-18.09-.21-31.58-7.33-40.09-21.17-8.15-13.26-20-17.1-35.21-18.79l-1-.1c-3.32-.37-6.76-.76-10.18-.89-13.45-.53-26.32 3.83-38.22 13-5 3.84-9.75 8.1-14.34 12.23-3 2.72-6.18 5.54-9.34 8.19-1.24 1-2.48 2.1-3.71 3.16C5 263.77 2.56 265.9 0 267.87v5c3.53-2.51 6.84-5.34 10.07-8.12q1.83-1.59 3.67-3.14c3.21-2.69 6.38-5.53 9.44-8.28 4.54-4.07 9.23-8.28 14.1-12 10.54-8.11 21.84-12.21 33.6-12.21h2c3.28.14 6.65.51 9.9.87l1 .11c19.46 2.15 27 8.31 32.25 16.9 9.14 14.88 24.16 22.86 43.45 23.08 6.28.07 12.67.05 18.84 0h12.67a21.3 21.3 0 012.64.25c.55.08 1.11.16 1.67.22l7.11.71c6 .62 12.27 1.26 18.43 1.74a15.21 15.21 0 0012.61-5c8-8.62 10.3-19.52 6.92-33.32-4.53-18.46-17-30.32-36-34.29a242.5 242.5 0 00-24.19-3.39c-5.23-.56-10.63-1.13-15.88-1.92-14.28-2.15-19.63-6.47-22.87-18.48-2.78-10.3-3.12-21.64-1-34.66 1.82-11.34 3.33-24.8.73-38.71-3.65-19.45-9.35-41.88-24-60.89-2.34-3-4-6.85-5.64-10.52l-.67-1.53c-4.23-9.48-3.41-19.46-1.9-28.84.08-.48.17-.94.25-1.41h-4.06c-.05.26-.09.51-.14.77-1.6 9.95-2.45 20.64 2.2 31.07z" class="bfb92e40-c938-4774-8303-1e5542ab5b61"/><path d="M974 362.79c-4.14-3.38-9.22-5.51-16-6.69a1.17 1.17 0 00-.42 0 1.07 1.07 0 00-.4 0c-8.84 1.33-14.82 5.44-18.27 12.55s-3.22 14 .68 19.92c2.63 4 6.61 6 12.08 6a30.36 30.36 0 006.31-.73c9.21-1.94 15.52-6.09 19.27-12.69 4.01-7.03 2.88-13.37-3.25-18.36zm1.53 17.33c-3.45 6.07-9.32 9.91-17.95 11.73-8 1.69-13.21.3-16.3-4.38-3.54-5.36-3.72-11.4-.55-18s8.63-10.21 16.77-11.44h.17c6.42 1.12 11.2 3.11 15.06 6.27 5.43 4.46 6.35 9.62 2.82 15.82z" class="bfb92e40-c938-4774-8303-1e5542ab5b61"/><path d="M1000.92 490.32a139 139 0 0016.88 8.21v-2.18a132.7 132.7 0 01-15.85-7.74c-7.76-4.66-12.56-10.48-14.67-17.79a8.5 8.5 0 01.64-6.57 5.64 5.64 0 013.67-2.71 20.2 20.2 0 002.53-.81c.69-.25 1.34-.49 2-.66 1.88-.5 3.8-.93 5.66-1.34 5.21-1.17 10.59-2.38 15.64-5.11l.38-.22v-2.3l-1.33.76c-4.8 2.6-9.82 3.73-15.13 4.92-1.87.42-3.82.85-5.73 1.36-.75.19-1.47.46-2.17.71a20.38 20.38 0 01-2.3.74 7.58 7.58 0 00-4.94 3.65 10.58 10.58 0 00-.85 8.14c2.27 7.81 7.36 14.01 15.57 18.94z" class="bfb92e40-c938-4774-8303-1e5542ab5b61"/><path d="M713.33 10.14h1.62c6.73 0 13.24-1.48 19.55-2.91 2.63-.6 5.36-1.21 8-1.71l4.37-.79c6-1.08 12.2-2.2 18.19-3.8a30.82 30.82 0 002.95-1h-7.4c-4.68 1.09-9.45 2-14.1 2.79l-4.37.79c-2.73.51-5.47 1.13-8.12 1.73-6.69 1.52-13.59 3.08-20.66 2.83a14.93 14.93 0 01-12.33-6.58Q700.48.8 700 0h-2.32a24.88 24.88 0 001.79 2.76c3.65 4.89 7.93 7.16 13.86 7.38z" class="bfb92e40-c938-4774-8303-1e5542ab5b61"/><path d="M696.39 536.8c1.6-7.76-.81-14.94-7-20.79-9.64-9.13-20.92-13.82-33.53-13.92a.74.74 0 00-.26 0 1.18 1.18 0 00-.42 0c-12.46 2.1-23.42 8.43-33.51 19.36-9.88 10.7-14.24 20.77-13.73 31.67.69 14.38 9.38 23.08 23.86 23.88 2.5.14 5.12.24 7.83.24a67.45 67.45 0 0023.57-3.72c18.65-6.87 29.5-18.88 33.19-36.72zM631.92 575c-13.33-.73-21.33-8.74-22-22-.49-10.34 3.7-19.94 13.2-30.22 9.78-10.59 20.37-16.73 32.37-18.75h.09a.88.88 0 00.24 0c12.09.1 22.91 4.6 32.18 13.37 3.93 3.73 8.23 10 6.39 18.94-3.54 17.1-14 28.64-31.91 35.26-10.43 3.92-21.3 3.92-30.56 3.4z" class="bfb92e40-c938-4774-8303-1e5542ab5b61"/><path d="M916.52 120.33c0 .9-.09 1.8-.13 2.69q-.21 4.67-.37 9.33a1.51 1.51 0 001.45 1.56 1.5 1.5 0 001.5-1.45q.16-4.65.36-9.31c0-.88.09-1.76.14-2.65a1.51 1.51 0 00-1.42-1.58 1.53 1.53 0 00-1.53 1.41z" class="bfb92e40-c938-4774-8303-1e5542ab5b61"/><path d="M982.24 219.36c-2.47 2.74-5.15 5.58-8.19 8.7a1.51 1.51 0 000 2.12 1.48 1.48 0 001 .43 1.45 1.45 0 001.07-.46c3.07-3.14 5.77-6 8.27-8.77a1.5 1.5 0 00-2.23-2z" class="bfb92e40-c938-4774-8303-1e5542ab5b61"/><path d="M919 110a1.5 1.5 0 001.49-1.34 35.71 35.71 0 012.84-11.1 1.5 1.5 0 10-2.72-1.25 38.12 38.12 0 00-3.1 12 1.5 1.5 0 001.33 1.65z" class="bfb92e40-c938-4774-8303-1e5542ab5b61"/><path d="M965.5 236.08a24.41 24.41 0 01-10.27 4.48 1.49 1.49 0 00.24 3 1.06 1.06 0 00.25 0 27.36 27.36 0 0011.54-5 1.5 1.5 0 00-1.76-2.43z" class="bfb92e40-c938-4774-8303-1e5542ab5b61"/><path d="M915.15 156.32a1.5 1.5 0 001.43 1.57h.07a1.5 1.5 0 001.5-1.43c.18-4 .32-8 .46-12a1.5 1.5 0 00-3-.1c-.14 3.98-.28 7.97-.46 11.96z" class="bfb92e40-c938-4774-8303-1e5542ab5b61"/><path d="M917.13 205.74a1.27 1.27 0 00.28 0 1.5 1.5 0 001.2-1.75 105.8 105.8 0 01-1.49-11.73 1.5 1.5 0 10-3 .21 109.56 109.56 0 001.53 12.07 1.51 1.51 0 001.48 1.2z" class="bfb92e40-c938-4774-8303-1e5542ab5b61"/><path d="M914.51 168.28c-.08 1.23-.17 2.46-.26 3.69-.21 2.85-.34 5.66-.4 8.35a1.49 1.49 0 001.47 1.53 1.5 1.5 0 001.5-1.46c.06-2.64.19-5.4.39-8.2.1-1.24.18-2.48.26-3.72a1.49 1.49 0 00-1.4-1.59 1.53 1.53 0 00-1.56 1.4z" class="bfb92e40-c938-4774-8303-1e5542ab5b61"/><path d="M933.91 234.42a1.5 1.5 0 10-1.82 2.38 35.72 35.72 0 0011.1 5.66 1.72 1.72 0 00.44.06 1.5 1.5 0 00.45-2.93 32.65 32.65 0 01-10.17-5.17z" class="bfb92e40-c938-4774-8303-1e5542ab5b61"/><path d="M991.38 103.55a1.46 1.46 0 00.78.22A1.5 1.5 0 00993 101c-3.25-2-6.75-4.14-10.34-6.19a1.5 1.5 0 00-2 .56 1.51 1.51 0 00.55 2c3.46 2.06 6.94 4.19 10.17 6.18z" class="bfb92e40-c938-4774-8303-1e5542ab5b61"/><path d="M990.22 212.43a1.52 1.52 0 00.94.33 1.5 1.5 0 001.17-.56c2.62-3.26 5.06-6.52 7.25-9.7a1.5 1.5 0 10-2.47-1.7c-2.15 3.12-4.54 6.32-7.12 9.52a1.5 1.5 0 00.23 2.11z" class="bfb92e40-c938-4774-8303-1e5542ab5b61"/><path d="M940.79 84.59c1.07 0 2.14.06 3.21.08 1.44 0 2.92 0 4.33.16a1.5 1.5 0 00.26-3c-1.52-.13-3.06-.15-4.55-.17-1 0-2.07 0-3.1-.08a1.13 1.13 0 00-.32 0 1.45 1.45 0 00-.55 0 29.72 29.72 0 00-11.57 4.84 1.5 1.5 0 001.76 2.43 26.83 26.83 0 0110.36-4.32z" class="bfb92e40-c938-4774-8303-1e5542ab5b61"/><path d="M1007.41 132.43c.32 3.43.55 7.21.74 11.9a1.51 1.51 0 001.5 1.44h.06a1.5 1.5 0 001.44-1.56c-.19-4.74-.43-8.57-.75-12.05a1.5 1.5 0 00-1.63-1.36 1.51 1.51 0 00-1.36 1.63z" class="bfb92e40-c938-4774-8303-1e5542ab5b61"/><path d="M1004 192.78a1.48 1.48 0 00.7.17 1.5 1.5 0 001.33-.8 46.34 46.34 0 004.15-11.65 1.5 1.5 0 00-1.15-1.78 1.51 1.51 0 00-1.79 1.15 42.93 42.93 0 01-3.87 10.89 1.49 1.49 0 00.63 2.02z" class="bfb92e40-c938-4774-8303-1e5542ab5b61"/><path d="M970.61 91.88a1.46 1.46 0 00.64.15 1.5 1.5 0 00.64-2.86 98.75 98.75 0 00-11.3-4.54 1.51 1.51 0 00-.94 2.86 94.47 94.47 0 0110.96 4.39z" class="bfb92e40-c938-4774-8303-1e5542ab5b61"/><path d="M1011.38 168.3c.08-2.94.12-5.9.12-8.8v-3.25a1.5 1.5 0 00-1.5-1.48 1.5 1.5 0 00-1.48 1.51v3.22c0 2.87 0 5.81-.12 8.73a1.51 1.51 0 001.46 1.54 1.5 1.5 0 001.52-1.47z" class="bfb92e40-c938-4774-8303-1e5542ab5b61"/><path d="M919.57 219.05a43 43 0 004.13 8.54 1.5 1.5 0 002.53-1.61 40.29 40.29 0 01-3.84-7.94c-.31-.87-.61-1.75-.89-2.63a1.5 1.5 0 10-2.86.92c.3.91.61 1.82.93 2.72z" class="bfb92e40-c938-4774-8303-1e5542ab5b61"/><path d="M1005.5 120.94a1.5 1.5 0 001.43 1 1.41 1.41 0 00.45-.07 1.51 1.51 0 001-1.89 33.15 33.15 0 00-5.93-11 1.5 1.5 0 00-2.11-.21 1.49 1.49 0 00-.21 2.11 30.26 30.26 0 015.37 10.06z" class="bfb92e40-c938-4774-8303-1e5542ab5b61"/><path d="M888.75 211.13c-1.79 3.19-3.55 6.4-5.31 9.61l-2.7 4.9c-6.66 12.06-4.9 21.34 6.1 32 7.88 7.66 17.72 10.55 28.82 13.28q3.26.8 6.49 1.62c9.54 2.4 19.41 4.89 29.35 6.24a105.51 105.51 0 0014.17.93 125 125 0 0015-.94c10.39-1.28 12-7.15 13.12-15.3.24-1.69.41-3.4.58-5 .27-2.54.51-4.94 1-7.31 1.85-9.85 6.59-19.16 15.35-30.2 2.5-3.15 4.89-6.22 7.09-9.31v-11a138.61 138.61 0 01-11.81 16.57c-6.33 8-13.93 18.91-16.55 32.82-.49 2.62-.76 5.25-1 7.8-.17 1.6-.34 3.25-.56 4.83-1.11 8.05-2.22 9.47-7.91 10.17a108.08 108.08 0 01-27.67 0c-9.6-1.3-19.3-3.75-28.68-6.11-2.18-.55-4.35-1.1-6.52-1.63-10.25-2.5-19.28-5.1-26.11-11.73-9-8.75-10.32-15.25-5-24.83.91-1.64 1.8-3.27 2.7-4.91q2.64-4.78 5.3-9.58c8.1-14.49 9.64-30.22 10.69-47.79.54-9 0-18.12-.61-26.94-.1-1.47-.19-2.94-.28-4.41-.33-5.29-1-10.6-1.69-15.73-.26-2-.52-4-.76-6-.39-3.24-.81-6.48-1.22-9.71-.79-6.14-1.6-12.49-2.22-18.73-.84-8.5 4.56-12.74 9.24-14.81a71.66 71.66 0 0111.51-3.56c1.68-.42 3.41-.85 5.12-1.33 1.81.15 3.63.26 5.4.36a84 84 0 0111.59 1.19C952.25 68.92 962.55 74 972 79.16c5.1 2.79 10.35 5.46 15.43 8 6.93 3.52 14.1 7.16 20.88 11.13a29.85 29.85 0 019.53 8.39v-8.87a40.71 40.71 0 00-6.51-4.66c-6.93-4.06-14.18-7.74-21.19-11.3-5-2.56-10.24-5.21-15.26-7.95-9.36-5.13-20.59-10.7-32.91-13.14a89.8 89.8 0 00-12.42-1.3c-1.78-.1-3.61-.21-5.39-.36a2.78 2.78 0 00-.5 0 3.05 3.05 0 00-1.08.1c-1.75.5-3.57 1-5.34 1.4a77.19 77.19 0 00-12.48 3.89C895.54 68.54 891 76 891.93 85.38c.63 6.33 1.45 12.72 2.24 18.9.41 3.22.82 6.44 1.21 9.67.24 2 .51 4 .77 6 .65 5 1.34 10.23 1.65 15.31.09 1.48.18 3 .28 4.44.55 8.64 1.13 17.57.61 26.19-1.01 16.83-2.45 31.85-9.94 45.24z" class="bfb92e40-c938-4774-8303-1e5542ab5b61"/><path d="M989.75 134c-2.33-15.94-16.6-24.33-29.18-26.86-.76-.16-1.51-.39-2.3-.63-.37-.12-.75-.24-1.13-.34a1 1 0 00-.52 0 1.08 1.08 0 00-.36 0c-13.11 1.35-17.07 11-19.4 21.27-3.48 15.27-7.41 32.58-6.91 50.25.3 10.54 2.81 18.89 7.66 25.53 4.29 5.87 9.16 9.23 14.47 10a16 16 0 002.3.16c4.77 0 9.8-2 15-6.05 15.14-11.75 22.89-28.05 22.43-47.15a217.53 217.53 0 00-2.06-26.18zm-21.62 71.68c-5.58 4.34-10.88 6.19-15.77 5.49s-9.18-3.75-13.13-9.17c-4.61-6.3-7-14.29-7.28-24.4-.5-17.43 3.41-34.6 6.86-49.76 2.5-11 6.46-18.57 17.66-19.72h.15l1.06.32c.8.25 1.63.5 2.49.68 11.92 2.39 25.42 10.27 27.6 25.19a215.6 215.6 0 012 25.86c.47 18.65-6.77 33.97-21.64 45.47z" class="bfb92e40-c938-4774-8303-1e5542ab5b61"/><path d="M826.81 200.51c11.78-5.75 20.41-13.24 26.4-22.9 7.11-11.45 6.28-21.49-2.69-32.55-7.38-9.1-17.84-14.94-32-17.86a57.4 57.4 0 00-9.4-.89c-1.38-.06-2.82-.12-4.21-.22a.83.83 0 00-.32 0 1 1 0 00-.42 0c-10.35 1.76-17.14 8.26-19.64 18.8-1.58 6.62-2.9 14.48-.79 22.48a40.33 40.33 0 011 7.69 49.31 49.31 0 00.71 6.7c1.84 9.4 6.62 16.26 13.81 19.83a26.79 26.79 0 0012 2.67 35.89 35.89 0 0015.55-3.75zm-26.66-.7c-6.61-3.29-11-9.66-12.74-18.43a49 49 0 01-.68-6.44 41.76 41.76 0 00-1-8.07c-2-7.58-.71-15.13.8-21.51 2.31-9.7 8.54-15.67 18-17.29h.26c1.43.1 2.88.16 4.28.22a56 56 0 019.08.85c13.66 2.82 23.74 8.44 30.81 17.16 8.47 10.43 9.23 19.48 2.55 30.24-5.78 9.32-14.15 16.57-25.57 22.15-8.85 4.31-18.49 4.75-25.79 1.12z" class="bfb92e40-c938-4774-8303-1e5542ab5b61"/><path d="M1011.2 35.94a59.2 59.2 0 006.6.93v-2a61.12 61.12 0 01-6.21-.9c-8.47-1.71-14.39-5.77-16.68-11.43-2.22-5.49-.89-12.21 3.75-18.92q1.3-1.89 2.69-3.63h-2.54c-.61.81-1.21 1.64-1.8 2.5-5 7.28-6.43 14.66-4 20.8 2.6 6.32 9.04 10.81 18.19 12.65z" class="bfb92e40-c938-4774-8303-1e5542ab5b61"/><path d="M1008.15 59.92a63.57 63.57 0 009.65 1.62v-2a59.84 59.84 0 01-9.15-1.55c-19.16-4.89-32.89-13.71-41.95-27-4.53-6.63-5.33-13.71-2.31-20.47A92.17 92.17 0 01969.93 0h-2.32a94.79 94.79 0 00-5.05 9.73c-3.27 7.33-2.38 15.29 2.49 22.42 9.35 13.67 23.45 22.76 43.1 27.77z" class="bfb92e40-c938-4774-8303-1e5542ab5b61"/><path d="M921.93 4.31a28.2 28.2 0 01-2.19 2c-3.16 2.46-4.9 5.54-5 8.91-.16 3.68 1.64 7.43 5 10.57a128.38 128.38 0 0014.59 11.6c21.43 14.56 39.58 25.21 57.15 33.52 5.6 2.64 11.51 4.8 17.22 6.89 3 1.1 6.07 2.24 9.09 3.44v-2.18c-2.81-1.09-5.63-2.15-8.4-3.16-5.68-2.08-11.54-4.22-17-6.83-17.51-8.26-35.59-18.87-56.92-33.37a124.52 124.52 0 01-14.36-11.41c-3-2.73-4.53-5.94-4.41-9a10 10 0 014.3-7.43c.84-.66 1.61-1.4 2.35-2.11A22.39 22.39 0 01926 3.44c1.58-1.11 3.16-2.27 4.73-3.44h-3.38c-.83.6-1.66 1.21-2.5 1.8a24 24 0 00-2.92 2.51z" class="bfb92e40-c938-4774-8303-1e5542ab5b61"/><path d="M1013.14 373.34c-4.5-14.19-14.54-25.33-29.84-33.1l-.92-.47c-7.66-3.88-15.57-7.91-23.74-10.93a47 47 0 00-11.5-2.14c-1.69-.17-3.44-.35-5.12-.6a1.06 1.06 0 00-.4 0 1 1 0 00-.46 0c-19.69 4.21-31.66 17.39-36.6 40.3-2.56 11.87-.24 23.89 6.89 35.73 7.23 12 15.74 20.56 26 26.18 6.11 3.35 13.15 6.52 20.75 6.52a26.25 26.25 0 006.88-.91 24.86 24.86 0 009.86-5.2c9.59-8.66 17.71-15.72 27.42-21.25 17.03-9.69 15.33-19.8 10.78-34.13zm-39.53 53.9a22.63 22.63 0 01-9 4.76c-9.54 2.58-18.2-1.08-26.15-5.43-10-5.45-18.22-13.78-25.26-25.46-6.86-11.39-9.1-22.92-6.65-34.27 4.76-22.07 16.23-34.75 35.07-38.77h.1c1.73.26 3.5.44 5.22.61a45.32 45.32 0 0111 2 224.51 224.51 0 0123.52 10.84l.92.46c14.81 7.52 24.51 18.26 28.85 31.93 4.78 15.07 5.36 23.12-9.86 31.79-9.88 5.67-18.08 12.81-27.76 21.54z" class="bfb92e40-c938-4774-8303-1e5542ab5b61"/><path d="M648.8 18.51c.05 4.82-2.85 8.9-8.39 11.82-7.87 4.13-15.55 4.36-20.54.61s-6.66-10.67-4.9-19.22c.18-.91 1.73-7.81 5.89-11.72h-2.75c-3.46 4.2-4.81 9.9-5.1 11.32-1.92 9.33.14 17.07 5.66 21.22a16.08 16.08 0 009.82 3.06 28 28 0 0012.85-3.5c7.89-4.15 9.5-9.7 9.46-13.61C650.74 12.07 646.11 5 639.1 0h-3.69c7.91 4.59 13.33 12 13.39 18.51z" class="bfb92e40-c938-4774-8303-1e5542ab5b61"/><path d="M652.94 329c-15.72-4.43-20.43-14.5-25.89-26.17-2.62-5.6-5.33-11.4-9.44-17.07-6-8.29-16.3-11.67-30.6-10.06-12.65 1.42-25.38 6.51-31.84 9.41-16.65 7.48-5.48 37.63.53 53.82.39 1.05.75 2 1.07 2.93 9.32 25.62 22.86 42.61 40.24 50.49a60.91 60.91 0 0025.41 5.21c18.45 0 36.14-6.87 48.24-11.57 3.9-1.52 7.26-2.82 9.89-3.61 6.41-1.93 9.9-6.44 9.85-12.7-.12-14.68-19.4-35.59-37.46-40.68zm26.47 49.55c-2.78.83-6.21 2.17-10.19 3.71-17.07 6.63-45.64 17.73-70.55 6.44-16.36-7.42-29.19-23.64-38.14-48.21-.32-.9-.69-1.89-1.08-2.95-5.16-13.9-15.88-42.83-2.64-48.78 10.27-4.62 44.77-18.3 57.56-.65 3.89 5.36 6.52 11 9.06 16.42 5.63 12 11 23.4 28.42 28.31 17.68 5 34.45 25 34.56 36.88.04 4.52-2.25 7.41-7 8.84z" class="bfb92e40-c938-4774-8303-1e5542ab5b61"/><path d="M595.54 328.44c-8-.72-14 .73-17.71 4.32a11.47 11.47 0 00-3.67 8.53c1.24 28 18.09 30.8 29.24 32.65 1.77.29 3.45.57 5 .92a16 16 0 003.54.42 11.35 11.35 0 007.92-3c5.29-4.91 6-14.32 4.93-21.5-1.42-9.14-7.61-20.4-29.25-22.34zm20.88 40.15c-1.74 1.61-4 2.07-6.94 1.39-1.66-.38-3.41-.67-5.27-1-11.25-1.87-24-4-25.06-27.94a6.6 6.6 0 012.13-4.7c2.14-2.05 5.74-3.11 10.49-3.11 1.05 0 2.16.06 3.33.16 14.78 1.32 23.09 7.4 24.7 18.08 1.11 7.34-.25 14.21-3.38 17.12z" class="bfb92e40-c938-4774-8303-1e5542ab5b61"/><path d="M562.5 506.08c4.63 0 9.12-4.08 11.21-6.31C583.9 489 588 481.65 586.87 476c-.74-3.89-3.86-7-9.8-9.78-10.93-5.11-13.75-.15-16.74 5.09a38.24 38.24 0 01-2.64 4.22c-5.84 7.79-7.08 22.87-.14 28.72a7.52 7.52 0 004.95 1.83zm-3.21-29.39a40.84 40.84 0 002.78-4.43c2-3.53 3.55-6.24 7.26-6.24a17.17 17.17 0 016.9 2c5.3 2.49 8.06 5.14 8.67 8.35.94 4.92-3.07 11.93-12.64 22.06-5.29 5.6-10 7.12-13.42 4.28-6.01-5.1-4.84-18.97.45-26.02z" class="bfb92e40-c938-4774-8303-1e5542ab5b61"/><path d="M103.6 887.68a126.72 126.72 0 00-31.43-33.57c-8.63-6.47-18.4-7.22-29-2.23-2.63 1.24-5.28 2.56-7.85 3.85-6.13 3.08-12.48 6.26-19 8.32A167 167 0 010 868.18v4.08a175.11 175.11 0 0017.51-4.4c6.8-2.16 13.29-5.41 19.57-8.56 2.54-1.27 5.16-2.58 7.75-3.8 9.33-4.37 17.48-3.78 25 1.81a122.9 122.9 0 0130.44 32.51 38.92 38.92 0 014.68 31.81c-2 7.49-6 15-12 22.87s-14 11.56-24.36 11.16a238.68 238.68 0 00-47.38 3.19C13.9 960 6.87 960.93 0 961.57v4c7.08-.64 14.32-1.56 21.83-2.8a234.32 234.32 0 0146.58-3.13c11.59.41 20.92-3.84 27.69-12.73 6.34-8.32 10.48-16.25 12.66-24.25a42.83 42.83 0 00-5.16-34.98z" class="bfb92e40-c938-4774-8303-1e5542ab5b61"/><path d="M391.14 1019.11c-.92-12.09 4.39-22.69 10.27-32.35C410 972.69 422 961.15 433.61 950l5.68-5.48c5.11-5 10.59-7.76 16.29-8.25 8.47-.75 17.13-1.12 25.5-1.48l1.45-.06c7.54-.33 12.69-3 15.73-8.08a68.84 68.84 0 006.58-14.22c.06-.22 6.13-21.64 23.39-29.78a33.48 33.48 0 0114.43-3.15q9.86 0 21.26 5.1c10.26 5.58 16.25 15 18.83 29.79 1.35 7.77 1.64 13.85.91 19.14-1.46 10.47-8.19 17.11-19.47 19.18h-.13c-19 6-31.93 16.37-38.55 30.68-8.32 18-4.34 37.84-1.61 47.19h2.1c-2.65-8.8-6.89-28.56 1.34-46.35 6.38-13.77 18.92-23.72 37.29-29.59 12.18-2.26 19.45-9.48 21-20.86.76-5.51.47-11.79-.92-19.76-2.7-15.41-9-25.33-19.88-31.23h-.06c-14.14-6.34-26.72-7-37.41-1.95-18.11 8.55-24.21 30.14-24.45 31a66.78 66.78 0 01-6.38 13.77c-2.71 4.54-7.18 6.8-14.09 7.1l-1.46.06c-8.39.36-17.07.74-25.58 1.48-6.17.54-12.06 3.51-17.52 8.82q-2.82 2.74-5.67 5.47c-11.71 11.24-23.81 22.86-32.52 37.16-6.05 9.94-11.52 20.88-10.55 33.54a39.37 39.37 0 002.43 11.35h2.18a36.37 36.37 0 01-2.61-11.48z" class="bfb92e40-c938-4774-8303-1e5542ab5b61"/><path d="M740.32 30.89c-26.41 16.22-49 27.62-71.13 35.88-9.05 3.38-13.17 9.48-13.36 19.78-.07 3.44-.26 7-.45 10.34-.21 3.82-.43 7.77-.47 11.68-.11 11.79-4.3 23.2-13.16 35.89a.76.76 0 00-.12.19c-.29.52-29.1 52.56-97.17 69-15.54 4.23-30.31 12.42-45.16 25A233.55 233.55 0 00481.59 256c-1.67 1.75-3.33 3.5-5 5.23-6.14 6.32-13.48 10.49-23.07 13.1-15.15 4.12-20.36 12.82-18 30 1.73 12.49 5.76 24.43 9.48 34.46 5.07 13.71 13.76 23.4 26.57 29.63 17.13 8.32 33.57 19.27 50.27 33.48 4.55 3.88 9.94 6.75 15.16 9.54 2.27 1.21 4.62 2.46 6.85 3.77 51.09 40.23 94.84 30.43 98.33 29.57 9.8-.92 19.5.55 30.5 4.61l4.14 1.53c8.62 3.21 17.53 6.52 26.58 8.89a99.79 99.79 0 0013.47 2.22 96.19 96.19 0 0112.94 2.13c14 3.67 21.77 12.28 23 25.58.8 8.89-.61 18.08-4.3 28.13q-10.32 28-20.65 56l-8.85 24a1.72 1.72 0 00-.07.21C712 626 728.47 639 741.69 649.42c7.69 6.08 14.33 11.33 15.06 18.11.49 4.63-1.79 9.94-7 16.25-14.22 17.29-34.41 25.69-55.36 23.06a58.85 58.85 0 01-45.95-33.93c-18-38.49 30.5-71.25 32.89-72.83.49-.24 1-.46 1.58-.69a14 14 0 004.22-2.38 136.17 136.17 0 0021.92-25.79c7.22-11 15.07-24.27 18.61-39.72 4.82-21.09-.37-33.57-17.92-43.08-17-9.23-31.8-15.19-46.44-18.76s-26.81-1-36.18 7.61c-4.38 4-7.95 8.92-11.41 13.65-1 1.3-1.9 2.6-2.86 3.87-2.94 2.93-70.2 69.46-119.64 77a1.77 1.77 0 00-.33.08 85.2 85.2 0 01-33.73 4.13c-6-.46-12.08-1.35-18-2.21-3.92-.57-8-1.15-12-1.62-2.82-.33-5.67-.46-8.43-.59-2.5-.11-5.08-.23-7.58-.5-13.43-1.42-28.46-4.11-36.79-18.12-3-5-4.29-11.51-5.29-17.23a94.4 94.4 0 01-1-14.3c0-1.47-.06-2.93-.11-4.39-.47-14-3.29-24.76-8.88-33.93-5.44-8.93-13.36-13.68-23.55-14.13-11.73-.51-22.56 2.57-30.7 5.32-9.07 3.06-18.15 6.49-26.94 9.82q-4.81 1.83-9.65 3.63l-.19.08a13.13 13.13 0 00-4.42 2.34c-9.17 8.32-11.16 13.14-4.86 25.3a61.47 61.47 0 006.34 9.25c.91 1.17 1.85 2.37 2.72 3.56 4.24 5.8 8.88 12.88 11.19 21.35 2.82 10.35.26 20-8.07 30.27-3.06 3.78-5.82 7.84-8.5 11.76-1.17 1.72-2.34 3.44-3.54 5.14-13.58 13.16-20.56 31.93-20.85 32.73-1 2.79-2.06 5.56-3.1 8.33-2.36 6.27-4.81 12.76-6.83 19.3-2.31 7.47-4.67 17.42-2.27 28 2 8.84 7.59 14.07 17.61 16.47q5.41 1.29 10.83 2.53 6.34 1.47 12.66 3c8.28 2 14.25 7.58 20.6 13.52 1.58 1.47 3.14 3 4.65 4.53 4.67 4.66 9.5 9.48 15.73 12.85 11.1 6 22.07 5 32.61-2.87 4.58-3.44 8.93-7.28 13.14-11s8.85-7.79 13.53-11.25c6-4.41 12.41-8.48 18.63-12.41 4.19-2.65 8.51-5.38 12.68-8.22 14.28-9.67 28.63-19.74 42.54-29.49 10.49-7.35 19.77-11.47 29.21-13 4.89-.79 10.25-.19 14.88.42 18.87 2.5 33.3-4.53 39.62-19.28a2.64 2.64 0 00.1-.3c.1-.41 10.45-41.16 37.13-42.09 10.44-.37 18.08 2 23.39 7.19 6.68 6.55 9.67 17.47 9.42 34.39a2.72 2.72 0 000 .28c.21 1.67.42 3.34.62 5 .45 3.66.9 7.33 1.39 11a114.65 114.65 0 009.69 33.07c3.1 6.71 6.33 13.51 9.44 20.08 5.49 11.57 11.16 23.54 16.4 35.44 5.13 11.65 5.14 23.88 0 36.36-2 4.76-4.16 9.52-6.31 14.13-2 4.37-4.13 8.89-6 13.44a31.56 31.56 0 00-2.04 11.19c-.15 5.25 3.55 9.09 9.23 9.55 19 1.54 33.43-6.56 42.86-24.08 1.49-2.77 2.74-5.68 3.95-8.5a92.34 92.34 0 014.18-8.89c2.34-4.18 4-6.2 5.55-6.55s3.86.89 6.84 2.91c6.45 4.36 12 10.31 17.2 16 8.73 9.66 18.49 19.21 33.42 20.47 5.59.48 11.28.5 16.78.53 2.73 0 5.56 0 8.33.1a22.27 22.27 0 014.59.46c9.64 2.21 13.29 6.53 15 17.82a68.41 68.41 0 01-38.45 72.36c-7.36 3.54-13.51 6.21-19.34 8.41-13.36 5-27.31 10.09-41.44 15-22.4 7.79-46.52-.69-57.38-20.17-3.51-6.29-5.75-13.55-7.92-20.58-.52-1.66-1-3.32-1.56-5-2.4-7.46-4.65-15.14-6.82-22.56-1.36-4.67-2.78-9.51-4.22-14.25-.43-2.44-5.76-27.2-47.28-38.65-36.67-10.11-58-7.67-69.16 7.93-2.42 3.37-4.81 6.76-7.2 10.15-5.9 8.36-12 17-18.34 25.23-10 13-21.49 20.46-35.17 22.86-14.89 2.61-29.86 5.5-42.54 8-9.33 1.83-22.34 6.08-27.64 21.75a249.9 249.9 0 01-10.85 25.81c-5.92 12.61-16.16 20.11-30.45 22.27-7 1-14.13-1.27-21.91-7.09-3.78-2.84-7.38-6.13-10.86-9.32-2-1.81-4-3.69-6.12-5.48-9.48-8.16-18.79-11.7-28.46-10.8a247.81 247.81 0 00-32.25 5.46c-13.78 3.13-26 3.06-37.5-.21-15.43-4.41-26.61-13.93-33.24-28.3-5.51-12-10.52-26.24-5.9-41.57a68.62 68.62 0 0120.48-32.46c6.42-5.62 15-7.73 24.16-6 13.91 2.7 30.12 5.61 46.39 5.87a11.61 11.61 0 014.24.85c5.08 2.12 9.28 5.89 13.64 12.24q4.84 7.06 9.66 14.14c8.61 12.6 17.5 25.63 26.47 38.3 2.78 3.93 6.84 7 10.42 9.48 6.31 4.46 14 5.38 23.6 2.81 14.1-3.78 29.88-9.56 40-23.8a150.45 150.45 0 0013.7-24.28 116 116 0 0010.26-45.73c.21-7.9.22-16.25 0-27.09a69.27 69.27 0 018.75-36c6.69-12 16.43-22.57 31.59-34.26a141.88 141.88 0 0121.17-13.32c11.18-5.83 23.68-6.43 40.51-2 20.41 5.41 37.71 8.14 54.45 8.59a2.48 2.48 0 00.54-.06c.53-.13 12.92-2.81 20.88 19.72 4.31 12.18 4.36 21.37.16 27.31-3.75 5.3-10.94 8-21.37 8-8.79-1.39-14.59-7.29-20.73-13.54l-1.17-.98c-5.16-5.23-11.48-9.34-17.58-13.31l-1.62-1.06c-4.2-2.74-8.62-5.24-12.9-7.66-2.84-1.61-5.77-3.27-8.6-5-13.86-8.38-28.11-8.24-43.56.42-18.23 10.23-30.24 24.45-35.7 42.28-2.08 6.79-3.27 14.79-3.63 24.46-.57 15.39-.33 30.83-.06 44.11.17 8 1.65 14.18 4.67 19.45 4.23 7.39 11 11.43 20.11 12 18.56 1.16 30.46-9.81 39.65-20.71 11.3-13.39 17.75-29.5 24-45.07l.39-.95c2.89-7.23 6.31-14.71 13.24-19.66 9-6.4 23.35-5.58 30.86 1.74 1.38 1.76 16 19.72 35 21.91 9.12 1 17.74-1.71 25.6-8.13 12.24-9.46 22.59-27.6 11.46-47.58-2.82-5.07-5.81-10.15-8.7-15.06-2.4-4.08-4.88-8.3-7.24-12.48l-.49-.86c-2.93-5.17-6-10.53-8.38-16-1.34-3-2.49-6.25-3.61-9.37-2.51-7-5.11-14.3-10.19-20.49-.65-.92-5.88-8.19-13.05-9.56a12.3 12.3 0 00-9.54 2.1c-.46.31-.93.61-1.4.91-1.07.68-2.16 1.38-3.21 2.19-10.44 8.11-21.29 11.73-33.17 11l-3-.17c-7.54-.42-15.33-.86-22.88-1.88a51.54 51.54 0 00-32.2 5.9 220.71 220.71 0 00-65 53c-6 7.22-10.83 15.82-14.74 22.73-8.4 14.84-6.76 30.57-4.16 46.73 1.62 10-.32 18.88-5.93 27-8.23 11.9-21.42 17.88-34.18 23.67-2.59 1.18-6.6.64-10.18 0-9.3-1.77-23.55-19.47-23.08-31.85a66.85 66.85 0 014.08-19.91 28.24 28.24 0 00-1.5-23.11c-2.86-5.67-6.88-10.28-10.76-14.74l-1.5-1.72c-7.35-8.5-22.67-10.07-32.8-3.36-7.85 5.2-13.78 12.18-19.53 18.94l-1.72 2.09c-6.78 7.94-15.4 11.91-24.93 11.49a84.49 84.49 0 01-26.93-6c-8.3-3.24-14.08-8.23-16.73-14.44-2.3-5.39-2.12-11.62.52-18a59.29 59.29 0 017.7-12.56l.44-.59c6.89-9.18 14-18.67 18.35-29.91 2.79-7.27 6.2-14.9 10.4-23.33 3-6 6.21-11.92 9.33-17.69 2-3.7 4.08-7.52 6.07-11.31 2.16-4.12 4.24-8.35 6.26-12.44q1.35-2.73 2.71-5.46c1.15-1.68 12.13-17.91 16.69-32.54l2-6.31 5-16.19c.6-1.94 1.27-3.91 1.92-5.82a99 99 0 004-13.94c1.77-9.79-2.34-18.46-7.06-26.38-.64-1.06-1.28-2.12-1.93-3.18-3.79-6.24-7.37-12.12-9-19.19-3.93-17.14 6.82-26.16 13.57-30 7.54-4.3 15.59-6.22 24.1-8.24 3.65-.87 7.41-1.77 11.09-2.86 8.51-2.53 17.24-4.85 25.69-7.1l7.25-1.93 3.16-.85c12.26-3.31 24.93-6.73 37.88-7.12 10.32-.31 17.9 4.26 23.19 14a80.78 80.78 0 019.3 31.73c1.08 11.42 2.27 23.57 4 35.6 2 13.7 10.22 21.81 23.69 23.43 9.32 1.13 18.91.75 28.18.38l4.1-.16c19.89-.73 37.62-7.9 53.82-15.55 10.17-4.81 15.28-13.16 16.06-26.27.2-3.28.24-6.62.28-9.85a118.1 118.1 0 011-16.42c1.56-10.08 3.73-17.66 6.82-23.83 8-15.84 5.23-29.81-8.55-44-14.92-15.32-31-25.8-49.29-32l-1.75-.6c-12.94-4.42-26.33-9-37.15-18a28.1 28.1 0 01-10.33-18.72c-.42-3.06-.77-6.22-1.11-9.26-.92-8.28-1.87-16.84-4.2-24.94-5.2-18.1-17.37-24.84-36.16-20-11.23 2.87-22.5 7.54-35.48 14.71l-.67.37a246 246 0 01-23.65 12c-16.76 7-27.77 19.21-33.68 37.31a82.81 82.81 0 01-16.5 29.33 62.51 62.51 0 01-36.37 20.79c-15.49 2.82-28.55 8.68-39.92 17.94a75.6 75.6 0 01-34.58 15.56c-16.83 3.09-34.66 4.64-51.05-4.84-7.38-4.27-14.34-9.68-21.07-14.91l-1.75-1.35C72.42 415.23 63 407.75 54 400.52q-7.89-6.25-15.78-12.52c-10.67-8.43-18.33-17.22-23.43-26.89A84.71 84.71 0 000 341v5.84A80.35 80.35 0 0111.25 363c5.36 10.18 13.37 19.39 24.49 28.17q7.88 6.21 15.72 12.48c9.09 7.24 18.49 14.73 27.84 22L81 427c6.84 5.31 13.91 10.81 21.53 15.21 17.51 10.13 36.19 8.54 53.77 5.32a79.57 79.57 0 0036.38-16.4c10.84-8.82 23.3-14.41 38.11-17.1a66.42 66.42 0 0038.66-22.09 86.56 86.56 0 0017.3-30.73c5.53-16.93 15.8-28.33 31.42-34.86a250.46 250.46 0 0024-12.16l.68-.37c12.66-7 23.64-11.55 34.53-14.33 16.52-4.22 26.77 1.42 31.33 17.26 2.29 7.75 3.29 16.14 4.15 24.25.34 3.07.69 6.25 1.11 9.36a32.37 32.37 0 0011.75 21.26c11.38 9.44 25.12 14.13 38.41 18.67l1.74.59c17.65 6 33.26 16.2 47.73 31.06 12.59 12.93 15 25.07 7.84 39.37-3.29 6.55-5.58 14.5-7.2 25a121.3 121.3 0 00-1 17c0 3.18-.08 6.47-.27 9.67-.7 11.65-5 18.71-13.78 22.88-15.81 7.47-33.09 14.47-52.26 15.17l-4.11.16c-9.11.36-18.53.74-27.54-.35-11.65-1.41-18.45-8.15-20.21-20.05s-2.95-24-4-35.38a84.77 84.77 0 00-9.78-33.27c-6-11-15-16.42-26.82-16.07-13.42.4-26.32 3.89-38.8 7.25l-3.16.86-7.24 1.93c-8.48 2.25-17.24 4.58-25.8 7.13-3.57 1.06-7.28 1.94-10.88 2.8-8.41 2-17.11 4.07-25.15 8.65-13.14 7.5-18.78 20-15.48 34.38 1.76 7.71 5.69 14.15 9.48 20.38.64 1 1.27 2.09 1.9 3.15 5 8.38 8 15.6 6.56 23.61a93.64 93.64 0 01-3.9 13.36c-.66 1.93-1.34 3.94-1.95 5.93l-5 16.18-2 6.31c-4.53 14.53-16.12 31.4-16.24 31.57s-.1.16-.14.24q-1.39 2.81-2.78 5.61c-2 4.07-4.09 8.27-6.22 12.35-2 3.77-4 7.58-6 11.27-3.15 5.8-6.39 11.79-9.4 17.81-4.26 8.54-7.72 16.28-10.56 23.67-4.12 10.73-10.77 19.58-17.81 29l-.44.58a62.77 62.77 0 00-8.19 13.44c-3.07 7.41-3.25 14.71-.51 21.12 3.08 7.22 9.64 13 19 16.59a88.4 88.4 0 0028.2 6.24c10.8.47 20.54-4 28.15-12.89l1.78-2.08c5.82-6.85 11.31-13.31 18.69-18.19 8.41-5.58 21.55-4.32 27.56 2.63l1.51 1.74c3.9 4.47 7.58 8.69 10.2 13.91a24.42 24.42 0 011.31 20 70.69 70.69 0 00-4.31 21.08c-.51 13.48 14.26 33.64 26.34 35.93 4.19.8 9 1.39 12.58-.25 13.25-6 26.95-12.22 35.81-25a39.83 39.83 0 006.59-29.91c-2.49-15.42-4.07-30.41 3.69-44.12 3.83-6.78 8.6-15.21 14.35-22.15A216.45 216.45 0 01450 676a47.64 47.64 0 0129.74-5.45c7.71 1 15.58 1.49 23.2 1.92l2.94.16c12.71.73 24.78-3.26 35.86-11.87.89-.7 1.87-1.32 2.9-2 .49-.31 1-.62 1.49-1a8.31 8.31 0 016.53-1.5c5.86 1.12 10.51 7.9 10.56 8a.91.91 0 00.11.16c4.68 5.66 7.06 12.31 9.58 19.36 1.13 3.19 2.31 6.48 3.71 9.64 2.5 5.64 5.58 11.08 8.56 16.34l.49.86c2.38 4.21 4.87 8.44 7.27 12.53 2.88 4.9 5.86 10 8.66 15 9.88 17.74 1.09 33.56-10.46 42.5-7 5.74-14.64 8.2-22.63 7.29-18-2.05-32.29-20.32-32.43-20.5l-.18-.2c-8.91-8.81-25.43-9.84-36.08-2.23-7.82 5.58-11.52 13.64-14.64 21.42l-.38.95c-6.12 15.28-12.45 31.08-23.34 44-8.55 10.14-19.54 20.37-36.34 19.3-7.79-.49-13.32-3.76-16.89-10-2.67-4.68-4-10.25-4.14-17.56-.27-13.21-.51-28.59.06-43.87.35-9.32 1.48-17 3.45-23.44 5.22-17.05 16.29-30.12 33.84-40 14.08-7.9 27-8.06 39.54-.49 2.87 1.74 5.83 3.41 8.69 5 4.22 2.39 8.59 4.86 12.68 7.53L504 729c5.93 3.86 12.07 7.84 16.93 12.77l1.16 1.18c6.37 6.48 13 13.17 23.14 14.72h.3c11.89 0 20.23-3.27 24.79-9.72 5-7.06 5.11-17.47.34-31-8.65-24.47-23-22.8-25.32-22.34-16.34-.38-33.34-3.06-53.34-8.37-17.87-4.73-31.25-4-43.39 2.29a146.46 146.46 0 00-21.77 13.7c-15.6 12-25.67 23-32.63 35.48a74.22 74.22 0 00-9.26 38c.2 10.77.19 19.07 0 26.9a112.08 112.08 0 01-9.9 44.16 146.73 146.73 0 01-13.33 23.64c-9.35 13.2-23.72 18.51-37.72 22.29-8.47 2.27-14.9 1.57-20.25-2.21-3.32-2.34-7.05-5.12-9.46-8.53-8.95-12.64-17.84-25.66-26.43-38.25q-4.83-7.07-9.67-14.14c-4.82-7-9.57-11.24-15.4-13.67a15.77 15.77 0 00-5.72-1.16c-15.94-.25-31.94-3.13-45.69-5.8-10.24-2-20.28.51-27.55 6.87a72.55 72.55 0 00-21.68 34.32c-5 16.61.27 31.76 6.1 44.39C155.34 910 167.37 920.25 184 925c12.12 3.46 25 3.55 39.49.27a243.08 243.08 0 0131.73-5.38c8.53-.78 16.86 2.44 25.48 9.85 2 1.75 4.07 3.61 6 5.4 3.55 3.25 7.22 6.61 11.16 9.57 8.68 6.5 16.83 9.06 24.91 7.84 15.47-2.34 27.05-10.82 33.47-24.52a252.55 252.55 0 0011-26.22c3.58-10.58 11.17-16.47 24.63-19.11 12.66-2.49 27.6-5.38 42.46-8s27-10.55 37.65-24.36c6.38-8.29 12.51-17 18.44-25.37q3.57-5.07 7.18-10.12c6.75-9.45 20.23-18.7 64.85-6.4 40.08 11 44.37 35.31 44.41 35.54s0 .19.07.29c1.44 4.76 2.87 9.63 4.24 14.34 2.18 7.44 4.43 15.14 6.85 22.66.52 1.63 1 3.28 1.54 4.93 2.24 7.22 4.55 14.68 8.26 21.34 11.8 21.18 37.95 30.43 62.18 22 14.17-4.93 28.15-10 41.54-15 6-2.24 12.2-5 19.67-8.54a72.42 72.42 0 0040.67-76.58c-2-12.82-6.88-18.54-18.08-21.11a26.77 26.77 0 00-5.39-.56c-2.81-.07-5.66-.09-8.41-.1-5.42 0-11 0-16.47-.51C730.07 806 721 797 712.76 787.94c-5.33-5.91-11.1-12.07-17.93-16.67-4.06-2.75-7-4.21-10-3.5-3.22.77-5.57 4-8.12 8.5a94.84 94.84 0 00-4.37 9.26c-1.17 2.74-2.38 5.57-3.79 8.19-8.74 16.22-21.5 23.4-39 22-2.75-.23-5.66-1.78-5.55-5.45a27.62 27.62 0 011.84-9.75c1.86-4.47 3.94-9 5.95-13.28 2.16-4.65 4.4-9.46 6.38-14.3 5.46-13.34 5.43-27-.07-39.49-5.26-12-11-24-16.44-35.54-3.12-6.57-6.33-13.35-9.43-20a110.44 110.44 0 01-9.35-31.92c-.49-3.65-.94-7.3-1.39-10.95l-.6-4.89c.25-18-3.13-29.82-10.62-37.16-6-5.94-14.91-8.72-26.33-8.34-29 1-40 41.59-40.83 45-5.59 12.87-18.47 19-35.35 16.74-4.92-.66-10.62-1.28-16-.41-10.07 1.6-19.87 5.94-30.91 13.68-13.87 9.72-28.21 19.77-42.45 29.43-4.12 2.8-8.42 5.52-12.57 8.15-6.28 4-12.78 8.07-18.87 12.57-4.83 3.57-9.39 7.59-13.8 11.47-4.15 3.66-8.45 7.44-12.9 10.79-9.18 6.88-18.71 7.74-28.31 2.55-5.72-3.09-10.13-7.5-14.81-12.16-1.53-1.53-3.11-3.11-4.77-4.66-6.42-6-13.06-12.2-22.36-14.44-4.22-1-8.46-2-12.69-3q-5.41-1.26-10.81-2.54c-8.6-2-13-6.07-14.64-13.45-2.17-9.64-.11-18.53 2.19-26 2-6.42 4.41-12.85 6.75-19.07 1.05-2.79 2.1-5.57 3.12-8.36.06-.19 7-18.85 20-31.36a1.68 1.68 0 00.24-.29c1.25-1.77 2.47-3.56 3.69-5.34 2.63-3.86 5.35-7.85 8.3-11.5 9.21-11.39 12-22.14 8.82-33.84-2.48-9.1-7.37-16.56-11.82-22.66-.91-1.24-1.87-2.47-2.8-3.66a57.31 57.31 0 01-5.94-8.63c-5.4-10.42-4.06-13.19 4-20.5a10.28 10.28 0 013.13-1.56l.19-.07q4.85-1.8 9.67-3.64c8.75-3.31 17.8-6.74 26.8-9.77 7.81-2.63 18.18-5.59 29.25-5.11 8.89.39 15.54 4.38 20.3 12.21 5.22 8.56 7.86 18.73 8.3 32 .05 1.45.08 2.89.11 4.34a98.57 98.57 0 001.06 14.91c1.07 6.07 2.48 13 5.8 18.59 9.26 15.59 25.4 18.52 39.8 20 2.61.28 5.25.4 7.81.52s5.48.25 8.16.56c3.95.46 8 1 11.85 1.61 6 .87 12.12 1.76 18.24 2.24A89.06 89.06 0 00494 575.7c51.59-8 119-75.32 121.8-78.18a1.81 1.81 0 00.18-.21c1-1.33 2-2.68 3-4 3.34-4.58 6.8-9.31 10.89-13.07 8.44-7.76 19.08-9.94 32.53-6.66 14.29 3.49 28.74 9.33 45.47 18.39 13.23 7.16 21 16.48 15.93 38.67-3.39 14.83-11 27.73-18 38.41a132 132 0 01-21.27 25 10.77 10.77 0 01-3.07 1.64c-.63.27-1.29.54-1.93.86l-.18.11a112.66 112.66 0 00-24.6 22.64c-14.69 18.55-18.1 37.67-9.85 55.3a62.8 62.8 0 0049.08 36.2c22 2.78 44.06-6.37 59-24.48 5.9-7.18 8.47-13.46 7.85-19.21-.9-8.46-8.5-14.47-16.55-20.83-12.94-10.23-27.62-21.84-21.39-47.1l8.81-23.9q10.33-28 20.65-56c3.91-10.61 5.39-20.38 4.54-29.86-1.35-15-10.32-25-25.95-29.1a99.71 99.71 0 00-13.48-2.23 97.64 97.64 0 01-13.04-2.09c-8.85-2.32-17.67-5.6-26.19-8.77l-4.15-1.54c-11.65-4.29-22-5.83-32.43-4.82l-.31.05c-.44.12-44.59 11-95.11-28.87a1.14 1.14 0 00-.23-.15c-2.33-1.38-4.76-2.68-7.11-3.93-5-2.69-10.22-5.46-14.45-9.06-17-14.43-33.68-25.56-51.11-34-11.84-5.76-19.88-14.72-24.57-27.42-3.64-9.83-7.59-21.51-9.26-33.62-2.13-15.32 1.81-22 15.06-25.63 10.17-2.77 18.32-7.41 24.89-14.17 1.69-1.74 3.36-3.5 5-5.26a233 233 0 0117.4-17c14.39-12.21 28.66-20.13 43.57-24.2a165.31 165.31 0 0076.24-41.81c15.38-14.89 22.63-27.69 23.39-29.06 9.31-13.35 13.7-25.44 13.82-38 0-3.82.26-7.72.47-11.5.18-3.43.38-7 .45-10.49.16-8.64 3.27-13.3 10.76-16.1 22.45-8.49 45.23-20 71.87-36.35 9.41-5.78 18.41-7.64 27.51-5.68s15 7.53 18 16.6c.8 2.49 1.44 5.13 2.05 7.68a91.28 91.28 0 002.59 9.33C799.6 82 817.71 85.36 832.3 81.91a37.51 37.51 0 0012.7-5.8c4.82-3.41 7.59-7.57 8.22-12.35.75-5.66-1.63-12-6.88-18.35-4.16-5-8.8-9.74-13.3-14.29-2.7-2.73-5.49-5.56-8.13-8.41A45.41 45.41 0 01813.44 0h-4.08a49.37 49.37 0 0012.56 25.42c2.69 2.9 5.5 5.75 8.23 8.51 4.43 4.49 9 9.13 13.06 14 4.52 5.47 6.6 10.75 6 15.27-.49 3.64-2.7 6.88-6.57 9.62A33.32 33.32 0 01831.38 78c-16.72 4-29.83-2.44-35.06-17.12a87.09 87.09 0 01-2.47-8.88c-.63-2.63-1.28-5.34-2.14-8-3.36-10.38-10.6-17-20.94-19.28-10.01-2.16-20.25-.09-30.45 6.17z" class="bfb92e40-c938-4774-8303-1e5542ab5b61"/><path d="M153.9 630.83c10.25-21.32 8.14-32.2 8-32.65a1.42 1.42 0 00-.07-.22c-.11-.35-.24-.68-.36-1a10.92 10.92 0 01-.55-1.72c-3-16.23-12.41-26.36-28-30.09-9.26-2.22-19-1.54-30.55 2.13a191.64 191.64 0 01-36.13 8c-9.11 1.05-18.54 2.13-26.92 7.59-3.23 2.1-6.69 4-10 5.9-2.09 1.17-4.25 2.38-6.35 3.62-2.34 1.39-4.11 1.92-5.11 1.53s-1.91-2-2.81-4.95a132.62 132.62 0 01-4-20.16c-1.54-11.06-5.18-20-11-27v6.72c3.61 5.72 5.92 12.59 7.07 20.88a136.52 136.52 0 004.16 20.77c1 3.24 2.3 6.39 5.2 7.52 2.27.88 5 .3 8.59-1.82 2.05-1.22 4.19-2.41 6.26-3.57 3.4-1.9 6.92-3.86 10.26-6 7.59-4.94 16.54-6 25.2-7a194.93 194.93 0 0036.88-8.18c10.8-3.5 19.83-4.13 28.33-2.13 14.12 3.38 22.3 12.18 25 26.93a13.71 13.71 0 00.73 2.39c.09.25.19.49.27.74.17 1.09 1.33 11.23-7.85 30.25a1.74 1.74 0 00-.17.5c-2.25 12-8.86 21.6-19.66 28.63-16.52 10.76-31.07 17.21-45.78 20.32C74 681 62.63 681.33 48.7 679.8c-3-.33-6-.7-8.94-1.08C29.07 677.39 18 676 6.87 676.65q-3.53.2-6.87.13v4c2.31 0 4.67 0 7.1-.14 10.77-.61 21.65.74 32.17 2.05 3 .38 6 .75 9 1.08 14.36 1.59 26.17 1.25 37.15-1.07 15.21-3.22 30.18-9.85 47.13-20.89 11.66-7.59 18.85-18.02 21.35-30.98z" class="bfb92e40-c938-4774-8303-1e5542ab5b61"/><path d="M135.82 909.27l2.9 6.25C145 929 157.63 933 169 935.76c19.44 4.64 39.3 4.27 58.51 3.92l8.5-.15c12.23-.14 23.28 3.86 33.67 12.28 4.44 3.61 8.8 7.5 13 11.26 3.57 3.19 7.27 6.49 11 9.62 11.09 9.26 23.51 13.27 36.94 11.92 17.12-1.72 30.69-9.22 40.33-22.29 10-13.51 19.6-27.68 28.59-41 10.66-15.81 24.82-25.53 43.31-29.71 15.26-3.45 28.29-12.07 38.71-25.63 2.81-3.65 4.83-6.57 6.77-9.39 2.5-3.61 4.86-7 8.6-11.54 1.21-1.3 21.39-22.06 57.51-7.71l.23.07c.1 0 10.08 2.72 21.74 12.38 10.76 8.91 25.2 25.77 32.88 55.47a64.52 64.52 0 0026.89 37.63l5 3.35c7.07 4.77 14.38 9.7 21.5 14.65 8.51 5.92 17.12 6.63 25.6 2.1q2.54-1.37 5.09-2.71c4.75-2.52 9.67-5.12 14.44-7.84 5-2.85 10-5.81 14.91-8.67 6.09-3.56 12.38-7.25 18.62-10.75 3.24-1.82 6.68-3.52 10-5.16a130.29 130.29 0 0016.52-9.16c9-6.2 17.81-13 26.33-19.52 4.85-3.74 9.88-7.6 14.87-11.31 7.49-5.56 15.16-11.74 19.48-20.83a197.63 197.63 0 008-20.8l.13-.38c2.69-7.84 7.47-13.55 13.81-16.53s14-3 21.6-.17c7.19 2.73 13.63 7.74 19.69 15.31l5.7 7.18c5.59 7.08 11.38 14.4 17.44 21.31 5.37 6.13 13.23 9.82 22.73 10.69 10.65 1 21.15-.77 31.3-2.47 2.06-.34 4.12-.69 6.18-1 9.49-1.48 17.85-3 25.58-4.52 2.65-.54 5.3-1 8-1.55 3-.58 6-1.17 9.1-1.79v-4.09c-3.3.69-6.59 1.32-9.85 1.95-2.67.51-5.33 1-8 1.56-7.67 1.55-16 3-25.41 4.49-2.07.32-4.15.67-6.22 1-9.9 1.65-20.14 3.36-30.28 2.43-8.58-.79-15.33-3.93-20.08-9.35-6-6.83-11.75-14.11-17.32-21.15-1.9-2.4-3.8-4.81-5.71-7.2-6.51-8.14-13.51-13.56-21.39-16.55-8.58-3.26-17.36-3.16-24.72.29s-12.84 10-15.89 18.86l-.13.37a196.54 196.54 0 01-7.8 20.36c-3.93 8.26-11.17 14.08-18.25 19.34-5 3.72-10.06 7.6-14.93 11.35-8.48 6.52-17.24 13.26-26.16 19.4a128.47 128.47 0 01-16 8.87c-3.36 1.66-6.84 3.38-10.18 5.25-6.28 3.52-12.58 7.22-18.68 10.79-4.86 2.86-9.89 5.81-14.87 8.64-4.71 2.69-9.61 5.28-14.34 7.79l-5.1 2.71c-7.14 3.82-14.15 3.22-21.43-1.85s-14.46-9.91-21.54-14.68l-5-3.36c-13-8.75-21.46-20.64-25.26-35.31-8-30.86-23.1-48.41-34.39-57.71-11.72-9.66-21.66-12.62-23-13-39.06-15.46-61.63 8.55-61.92 8.87-3.87 4.67-6.29 8.17-8.85 11.87-1.92 2.77-3.9 5.65-6.65 9.22-9.84 12.8-22.09 20.93-36.42 24.17-19.53 4.41-34.49 14.68-45.74 31.37-9 13.32-18.57 27.45-28.5 40.9-8.94 12.12-21.56 19.07-37.51 20.68-12.32 1.23-23.74-2.47-34-11-3.7-3.09-7.38-6.36-10.93-9.53-4.26-3.8-8.66-7.72-13.17-11.38-10.93-8.87-22.54-13.18-35.48-13.18h-.7l-8.52.15c-19 .35-38.57.71-57.51-3.82-13.34-3.18-22.61-7.31-27.58-18l-2.9-6.24c-6.62-14.24-13.47-29-19.48-43.7-7.46-18.31-18.25-31.51-33-40.36-14.89-8.94-29.75-10.62-44.15-5a74.54 74.54 0 00-21 12.3A89.94 89.94 0 010 844.72v4.34a93.2 93.2 0 0024.42-15.17 70.8 70.8 0 0119.87-11.63c13.19-5.15 26.87-3.57 40.64 4.7 14 8.39 24.22 21 31.34 38.44 6.05 14.83 12.91 29.6 19.55 43.87z" class="bfb92e40-c938-4774-8303-1e5542ab5b61"/><path d="M812.67 1025.51c-.72-6.88.16-13.41 1.11-19.51 1.74-11.15 7.81-19.35 18-24.39 13.72-6.76 25.52-16.59 35.93-25.26a49.46 49.46 0 0113.41-7.66c3.59-1.41 6.74-1.53 9.36-.34 2.8 1.27 5 4 6.42 8s2.82 8.63 4.08 12.9c.64 2.17 1.28 4.33 2 6.49 2.66 8.54 8.45 13.48 15.89 13.54h.13c5.44 0 10.91-2.92 15.75-5.5a92.48 92.48 0 009.83-6.38c1.92-1.36 3.9-2.77 5.89-4a42.17 42.17 0 0123.39-6.72h19c8.17 0 16.44-.32 24.95-1.1v-4c-8.52.79-16.8 1.17-24.92 1.11h-19a45.85 45.85 0 00-25.58 7.31c-2.07 1.32-4.1 2.76-6.06 4.15a88 88 0 01-9.4 6.11c-4.45 2.38-9.5 5.06-14 5-5.59 0-10-4-12.11-10.73-.66-2.14-1.3-4.29-1.94-6.44-1.27-4.32-2.59-8.78-4.15-13.12-1.81-5-4.76-8.63-8.53-10.33-3.59-1.63-7.9-1.54-12.47.26a53.37 53.37 0 00-14.51 8.31c-10.2 8.6-21.8 18.26-35.14 24.79-11.46 5.65-18.26 14.85-20.21 27.36-1 6.36-1.9 13.19-1.14 20.55.17 1.6.4 3.15.67 4.68h4.08c-.28-1.59-.55-3.33-.73-5.08z" class="bfb92e40-c938-4774-8303-1e5542ab5b61"/><path d="M271.06 1030.61c3.77-10.78 2.19-22.08-4.8-34.35-9.45-16.58-24.85-26.31-47.09-29.73A188.29 188.29 0 00191 964.7h-.25a1.1 1.1 0 00-.54 0c-1.36.4-2.82.73-4.23 1-3.27.73-6.65 1.49-9.39 3.29-5.89 3.87-12.53 8.65-17.17 14.69a297.16 297.16 0 00-22.14 33.53 42.92 42.92 0 00-5 13.32h2a41.94 41.94 0 014.74-12.33A294.46 294.46 0 01161 985c4.46-5.81 10.93-10.46 16.67-14.24 2.44-1.6 5.5-2.28 8.73-3 1.44-.32 2.92-.66 4.34-1.07a1 1 0 00.24 0 187.69 187.69 0 0127.88 1.8c21.6 3.33 36.54 12.73 45.66 28.75 6.82 12 8.27 22.93 4.42 33.36z" class="bfb92e40-c938-4774-8303-1e5542ab5b61"/><path d="M46.13 930c6.82-5.85 13.1-12.72 12.92-23.27-.09-5.1-2.28-9.07-6.17-11.19-4.17-2.27-9.67-5-15.31-5.56-7.18-.78-14.53-.91-21.63-1-2.93 0-5.95-.1-8.92-.2a.86.86 0 00-.28 0 1 1 0 00-.49 0c-2 .51-4.11 1-6.17 1.46H0v2.06l.53-.13c2.07-.47 4.14-1 6.2-1.46h.21c3 .09 6 .15 9 .2 7.06.12 14.37.25 21.46 1 5.29.57 10.56 3.14 14.56 5.32 3.23 1.76 5.06 5.13 5.13 9.47.16 9.19-4.77 15.33-12.22 21.72s-16.23 10.78-27.16 13.74A69.23 69.23 0 010 944.85v2a71.59 71.59 0 0018.23-2.78c11.22-3.02 20.35-7.65 27.9-14.07z" class="bfb92e40-c938-4774-8303-1e5542ab5b61"/><path d="M208.73 846.84a96.26 96.26 0 00-12.13-2.29c-1.79-.26-3.64-.53-5.44-.84a1.17 1.17 0 00-.42 0 1.05 1.05 0 00-.63 0c-1.39.57-2.86 1.09-4.28 1.59a43.74 43.74 0 00-9.31 4.11c-15.12 9.78-15.61 30.08-7.41 43.27 4.89 7.86 11.12 13.06 19 15.91a38.62 38.62 0 0013.1 2.32c7.12 0 14.45-2 22.15-6a62 62 0 0013.19-9.14c11.22-10.37 11.94-21.24 2.13-32.3-8.68-9.74-20.56-14.01-29.95-16.63zm26.5 47.54a59.21 59.21 0 01-12.75 8.83c-12 6.22-23 7.38-33.66 3.55-7.47-2.68-13.36-7.61-18-15.08-7.71-12.39-7.3-31.41 6.8-40.53a42.21 42.21 0 018.88-3.91c1.41-.49 2.86-1 4.26-1.57h.07c1.83.32 3.69.59 5.5.85a95.46 95.46 0 0111.87 2.23c9.13 2.55 20.68 6.69 29 16.11 9.22 10.39 8.59 19.77-1.97 29.52z" class="bfb92e40-c938-4774-8303-1e5542ab5b61"/><path d="M442 741.2h-.28a2.51 2.51 0 00-.9.07c-15.5 4.14-20.29 16.82-23.15 29.91a90.33 90.33 0 00-2 21.06 69.58 69.58 0 003.12 20.18c3.06 9.21 8.32 12.47 12.2 13.59a15.27 15.27 0 004.29.59 22.85 22.85 0 0014.19-5.6c11.53-9.47 17.62-22.16 18.11-37.72a53.42 53.42 0 00-9-32c-4.43-6.78-9.7-9.99-16.58-10.08zm20.56 41.92c-.44 14.06-5.92 25.5-16.28 34-4.57 3.75-9.77 5.28-13.92 4.08-4-1.15-6.94-4.63-8.85-10.37a64.45 64.45 0 01-2.86-18.71 85.68 85.68 0 011.9-19.88c2.9-13.23 7.29-22.74 19.27-26.07h.18c5.12.07 9 2.49 12.48 7.85a48.47 48.47 0 018.1 29.1z" class="bfb92e40-c938-4774-8303-1e5542ab5b61"/><path d="M92.91 765c2.53-7.51 1.23-15.38-3.74-22.77-5.59-8.3-14.63-12.73-27.62-13.55-13.47-.85-26.3 2.63-39.34 6.58A56.83 56.83 0 010 737.5v2a58.89 58.89 0 0022.79-2.32c12.86-3.9 25.49-7.33 38.63-6.5 12.51.79 20.79 4.81 26.09 12.67 3.21 4.78 6.44 12.3 3.51 21-2.48 7.36-8.25 11.41-18.73 13.16-7.69 1.28-15.61 2.14-23.26 3-6.29.68-12.8 1.38-19.17 2.32C21.55 784 13 785.31 5.2 788.5l-2.71 1.11-2.49 1v2.16l3.25-1.34L6 790.35c7.54-3.1 16-4.35 24.19-5.55 6.33-.93 12.82-1.64 19.1-2.32 7.68-.83 15.62-1.69 23.37-3 6.97-1.15 16.7-3.92 20.25-14.48z" class="bfb92e40-c938-4774-8303-1e5542ab5b61"/><path d="M83.62 798.21c-4.5-.6-8.22-1-11.72-1.25a1 1 0 00-1.07.93 1 1 0 00.92 1.07c3.46.24 7.15.64 11.61 1.23h.4a1 1 0 00.12-2z" class="bfb92e40-c938-4774-8303-1e5542ab5b61"/><path d="M78.4 708.75h4.79a1 1 0 000-2h-12a1 1 0 000 2c2.39-.02 4.81 0 7.21 0z" class="bfb92e40-c938-4774-8303-1e5542ab5b61"/><path d="M139.31 707.7a1.07 1.07 0 00.52.14 1 1 0 00.85-.49c1-1.6 1.83-3.21 2.59-4.78a7.44 7.44 0 00.79-3.16 4.38 4.38 0 00-2.34-4 1 1 0 00-1.36.41 1 1 0 00.42 1.35 2.39 2.39 0 011.28 2.25 5.39 5.39 0 01-.6 2.3 55.36 55.36 0 01-2.49 4.62 1 1 0 00.34 1.36z" class="bfb92e40-c938-4774-8303-1e5542ab5b61"/><path d="M123.58 762.23a1 1 0 00-1.07-.94 1 1 0 00-.93 1.07c.13 2.07.27 4.15.42 6.22.13 1.92.26 3.83.38 5.75a1 1 0 001 .94h.06a1 1 0 00.94-1.06l-.39-5.76q-.21-3.11-.41-6.22z" class="bfb92e40-c938-4774-8303-1e5542ab5b61"/><path d="M23.2 709.86h.05l12-.52a1 1 0 00.95-1 1 1 0 00-1-.95l-12 .51a1 1 0 000 2z" class="bfb92e40-c938-4774-8303-1e5542ab5b61"/><path d="M47.22 708.89l4.79-.14c2.21 0 4.56-.08 7.18-.09a1 1 0 000-2c-2.63 0-5 0-7.22.09l-4.81.14a1 1 0 000 2z" class="bfb92e40-c938-4774-8303-1e5542ab5b61"/><path d="M49.83 797.74c-.7.11-1.4.24-2.09.37a1 1 0 00-.8 1.17 1 1 0 001 .81h.19c.68-.13 1.36-.26 2-.37a76.13 76.13 0 019.71-1 1 1 0 001-1 1 1 0 00-1-.95 78.06 78.06 0 00-10.01.97z" class="bfb92e40-c938-4774-8303-1e5542ab5b61"/><path d="M36 801.08a115.06 115.06 0 00-11.33 4.23 1 1 0 00-.53 1.32 1 1 0 00.92.6 1.1 1.1 0 00.4-.08A114.83 114.83 0 0136.6 803a1 1 0 10-.6-1.9z" class="bfb92e40-c938-4774-8303-1e5542ab5b61"/><path d="M12.21 709.27a1 1 0 00-1-1c-4 .13-7.7.2-11.18.23v2c3.5 0 7.19-.1 11.24-.23a1 1 0 00.94-1z" class="bfb92e40-c938-4774-8303-1e5542ab5b61"/><path d="M123.39 737.41a1 1 0 00-1.18.77 56.94 56.94 0 00-1.21 11.66v.47a1 1 0 001 1 1 1 0 001-1v-.46a55.12 55.12 0 011.15-11.25 1 1 0 00-.76-1.19z" class="bfb92e40-c938-4774-8303-1e5542ab5b61"/><path d="M130.49 697.3a1 1 0 00-1.24-.68 36 36 0 00-7.15 2.85c-1.28.69-2.62 1.34-4 1.92a1 1 0 00-.53 1.31 1 1 0 00.92.61 1.14 1.14 0 00.4-.08q2.11-.91 4.13-2a34 34 0 016.75-2.69 1 1 0 00.72-1.24z" class="bfb92e40-c938-4774-8303-1e5542ab5b61"/><path d="M13.8 810.6a164.83 164.83 0 00-8.29 4.82c-.7.43-1.39.84-2.09 1.25a1 1 0 00-.37 1.33 1 1 0 00.87.49 1 1 0 00.5-.13c.71-.42 1.43-.84 2.14-1.28 2.75-1.7 5.51-3.3 8.19-4.76a1 1 0 10-.95-1.76z" class="bfb92e40-c938-4774-8303-1e5542ab5b61"/><path d="M117.88 795.91a1 1 0 00-.09 1.41 1 1 0 00.75.34 1 1 0 00.67-.25 16.44 16.44 0 005.67-11.09 1 1 0 10-2-.14 14.43 14.43 0 01-5 9.73z" class="bfb92e40-c938-4774-8303-1e5542ab5b61"/><path d="M95.53 801.87a70.67 70.67 0 007.4.44 46 46 0 004.79-.24 1 1 0 00.89-1.1 1 1 0 00-1.1-.89 54.12 54.12 0 01-11.76-.2 1 1 0 00-1.1.88 1 1 0 00.88 1.11z" class="bfb92e40-c938-4774-8303-1e5542ab5b61"/><path d="M126.49 727.92a1.06 1.06 0 00.42.09 1 1 0 00.91-.59 58.83 58.83 0 015.93-10.18 1 1 0 10-1.63-1.17 61.7 61.7 0 00-6.12 10.52 1 1 0 00.49 1.33z" class="bfb92e40-c938-4774-8303-1e5542ab5b61"/><path d="M95.24 708.31a89.29 89.29 0 0012-1.52 1 1 0 10-.4-2 90.16 90.16 0 01-11.76 1.49 1 1 0 00.06 2z" class="bfb92e40-c938-4774-8303-1e5542ab5b61"/><path d="M459.76 1021.67h.06c5.18.89 8.45 4 9.65 8.93h2a13.17 13.17 0 00-11.35-10.9 1.17 1.17 0 00-.42 0 1 1 0 00-.65 0c-6.95 3-8.28 4.39-8.17 10.83h2c-.12-5.48.75-6.21 6.88-8.86z" class="bfb92e40-c938-4774-8303-1e5542ab5b61"/><path d="M40.76 1017.3c-8.69-7.45-18.5-7.84-27.8-7.6a.78.78 0 00-.22 0 1 1 0 00-.46 0A49.18 49.18 0 000 1014v2.27a46.89 46.89 0 0112.69-4.63h.05a2 2 0 00.27 0c8.91-.23 18.3.13 26.44 7.12a23.16 23.16 0 017.41 11.79h2.06a25.18 25.18 0 00-8.16-13.25z" class="bfb92e40-c938-4774-8303-1e5542ab5b61"/><path d="M43.91 995.71c-9.82-4.16-20.1-4.1-30-4H8.77a1.06 1.06 0 00-.5 0c-1.82.47-3.7.9-5.52 1.31l-2.75.65v2.05l3.17-.72c1.83-.42 3.72-.85 5.57-1.32a1 1 0 00.24 0h4.92c9.73-.07 19.79-.13 29.22 3.87 11.64 4.94 18.72 11.32 22.28 20.09a44.15 44.15 0 013 13h2a45.92 45.92 0 00-3.19-13.72c-3.73-9.32-11.15-16.05-23.3-21.21z" class="bfb92e40-c938-4774-8303-1e5542ab5b61"/><path d="M174.13 1026.54c-2.22-16.13 9-33 24.6-36.87h.19c1.74.1 3.52.14 5.25.17a55.69 55.69 0 0111.06.94c16 3.6 22.52 12.42 20.52 27.73a60.36 60.36 0 01-2.81 12.07h2.11a63.73 63.73 0 002.68-11.81c2.13-16.32-5.09-26.12-22.06-29.94a57.35 57.35 0 00-11.47-1c-1.7 0-3.46-.07-5.16-.17a.8.8 0 00-.31 0 1 1 0 00-.49 0c-16.5 4.09-28.45 22-26.1 39.08.18 1.29.41 2.55.67 3.8h2c-.23-1.26-.49-2.62-.68-4z" class="bfb92e40-c938-4774-8303-1e5542ab5b61"/><path d="M86.71 1006.59C85 995.09 75.5 989.2 67.39 985.36c-13.24-6.28-27.76-9.44-44.39-9.66a.72.72 0 00-.26 0 1.17 1.17 0 00-.42 0l-1.93.36a26.75 26.75 0 01-4 .6c-5.85.3-11.3.77-16.43 1.4v2c5.16-.64 10.64-1.11 16.54-1.41a30.93 30.93 0 004.24-.63c.62-.13 1.25-.25 1.87-.36h.09a.85.85 0 00.23 0c16.34.22 30.59 3.32 43.56 9.46 7.67 3.64 16.66 9.16 18.2 19.72a140.21 140.21 0 011.42 23.73h2a141.56 141.56 0 00-1.4-23.98z" class="bfb92e40-c938-4774-8303-1e5542ab5b61"/><path d="M414.17 1016.67c-.32-13.73 5.37-25.42 16.92-34.72 10.29-8.28 20.94-13.27 32.57-15.27h.2l1.9.25 5.59.75c9.23 1.24 16.55 5.68 22.39 13.56 5.49 7.41 6.3 16.28 7.09 24.86l.07.69c.43 4.75.57 9.63.7 14.35.09 3.1.19 6.29.37 9.46h2c-.18-3.18-.28-6.39-.37-9.52-.13-4.75-.27-9.66-.71-14.48l-.07-.68c-.81-8.86-1.65-18-7.47-25.87-6.18-8.34-13.94-13-23.73-14.35L466 965l-1.9-.25a1 1 0 00-.38 0 1 1 0 00-.42 0c-12 2.06-22.93 7.19-33.48 15.68-12.06 9.72-18 21.94-17.67 36.33a47.24 47.24 0 002.49 13.89h2.12a45.39 45.39 0 01-2.59-13.98z" class="bfb92e40-c938-4774-8303-1e5542ab5b61"/><path d="M808.68 765.64c4.69 8.4 12.3 12.48 22.75 12.17a131.14 131.14 0 0121.16 1c7.2 1 14.19 4.63 20.8 10.94 12.19 11.65 23.12 22.74 33.43 33.89 11.44 12.38 23.27 25.19 41.7 28.49 4.6.82 9.28 1.38 13.82 1.91l5.28.64 1.47.19c2.49.33 5.08.66 7.66.81 14.91.85 28.5-1.33 41-6.57v-4.35c-12.43 5.5-25.95 7.79-40.82 6.93-2.44-.14-5-.47-7.38-.78l-1.48-.19c-1.77-.23-3.54-.44-5.31-.65-4.48-.53-9.11-1.08-13.58-1.88-17.11-3.06-28.48-15.37-39.48-27.27-10.36-11.21-21.35-22.35-33.6-34.06-7.23-6.91-15-11-23-12a134.59 134.59 0 00-21.8-1c-8.92.28-15.18-3-19.13-10.12-5.35-9.6-11.41-20.47-16.38-31.37-6.59-14.47-3.35-25.23 10.19-33.86a151.94 151.94 0 0116.75-8.91c11.69-5.51 24.42-8 36.44-9.78 4.18-.64 8.51-1 12.7-1.32a145.47 145.47 0 0016.34-1.94c19.3-3.75 38.18-8.07 59.09-12.92 13.68-3.18 23.83-1.59 32.92 5.15 10.52 7.8 22.87 11.75 37.57 12v-4c-13.81-.28-25.38-4-35.19-11.25-10-7.39-21.48-9.24-36.21-5.83-20.87 4.84-39.71 9.15-58.94 12.9a143.91 143.91 0 01-15.9 1.87c-4.26.34-8.66.7-13 1.35-12.32 1.87-25.39 4.39-37.54 10.13a153.6 153.6 0 00-17.2 9.14c-15.12 9.65-19.05 22.73-11.68 38.9 5.06 11 11.17 22 16.55 31.64z" class="bfb92e40-c938-4774-8303-1e5542ab5b61"/><path d="M710.07 212.15a27.85 27.85 0 0119.5 12.14c7.64 11.41 15.31 25.29 14.3 41.68-.1 1.61-.19 3.22-.28 4.84-.19 3.64-.4 7.42-.74 11.09-1.42 15.2 5.26 26.47 21 35.46 2.43 1.38 4.89 2.74 7.34 4.1 7.73 4.28 15.71 8.7 22.8 14 5.85 4.34 11.11 9.84 16.19 15.16 1.87 2 3.8 4 5.74 5.93 6.62 6.64 14.73 11.55 24.77 15 2.68.93 5.38 2.05 8 3.14 2.27.94 4.62 1.92 7 2.78 12.71 4.62 20.47 14.62 27.95 25.35A243.76 243.76 0 01898 426.09c6.07 11.19 4.67 20.16-4.52 29.09l-4.13 4c-6 5.8-12.27 11.8-17.92 18.17a37 37 0 00-9.54 28.79A46 46 0 00874 532.37c6.53 7.17 16.6 7.44 25.07.67a143.12 143.12 0 0012.65-11.92c1.19-1.22 2.38-2.44 3.58-3.64 1.93-1.92 3.79-4 5.6-5.93a96.55 96.55 0 0110.37-10.26c7.69-6.16 15.93-6.62 24.51-1.36a184.18 184.18 0 0115.2 10.81c2.36 1.81 4.8 3.68 7.25 5.46 9 6.58 18.53 13.45 29 21a40.21 40.21 0 0110.6 11.14v-6.7a45.18 45.18 0 00-8.26-7.69c-10.47-7.55-20-14.42-29-21-2.42-1.76-4.84-3.61-7.18-5.4a186.69 186.69 0 00-15.54-11.05c-10-6.14-20.08-5.57-29.1 1.65a100.27 100.27 0 00-10.83 10.68c-1.77 1.94-3.6 3.94-5.47 5.81q-1.81 1.82-3.61 3.66a140.18 140.18 0 01-12.29 11.6c-6.92 5.53-14.44 5.44-19.62-.24-11.36-12.47-17-33.34-2.47-49.7 5.55-6.25 11.73-12.19 17.7-17.94l4.14-4c10.42-10.11 12.14-21.18 5.26-33.87a249.66 249.66 0 00-14.61-23.68c-7.55-10.82-16.08-21.81-29.87-26.82-2.29-.83-4.6-1.79-6.83-2.72-2.67-1.11-5.43-2.25-8.23-3.22-9.45-3.25-17-7.84-23.24-14-1.91-1.92-3.83-3.93-5.68-5.87-5.2-5.44-10.57-11.07-16.69-15.62-7.31-5.42-15.41-9.9-23.25-14.24-2.44-1.36-4.88-2.71-7.3-4.09-14.22-8.11-20.26-18.16-19-31.61.35-3.75.56-7.56.76-11.24.09-1.61.17-3.22.27-4.82 1.08-17.57-7-32.18-15-44.14a31.77 31.77 0 00-22.26-13.88c-3.72-.53-7.52-.79-11.19-1.05-3.88-.28-7.89-.56-11.75-1.15a82.5 82.5 0 01-16.58-4.37c-8.47-3.19-13.08-10.12-13-19.51.06-6.32 2.35-13.18 7-21 2.51-4.19 5.15-8.42 7.71-12.5 3.07-4.9 6.25-10 9.22-15 11.33-19.37 27.44-34.47 49.28-46.19a16.66 16.66 0 014.2-1.27l.26-.05c2.43-.52 4.21-.35 5.3.49s1.61 2.36 1.72 4.62c.3 6.68.16 13.31 0 18.34-.19 6.09 2.39 8.11 4.59 8.73 2.63.74 6.12-1.59 7.82-3.34 6-6.11 13.93-9.33 23.7-9.58 11.68-.3 23.64.7 35.2 1.66l2.07.17c7.5.62 15.1 1.58 22.47 2.51 3.82.48 7.65 1 11.48 1.4 11.71 1.34 19.69 6.55 24.4 15.94 3.88 7.72 6.28 16.23 7.56 26.79 1.73 14.29-1.07 25.59-8.83 35.55-7.25 9.31-16.53 16.9-25.52 24.24-2.91 2.37-5.92 4.83-8.82 7.32a135.87 135.87 0 01-15.57 10.93c-2.85 1.81-5.79 3.67-8.61 5.63-7.67 5.29-10.86 12.05-9.21 19.52 4.13 18.74 16.65 21.66 29.11 23 7.78.86 16.6 1.84 24.19 6.3 3.58 2.11 7.18 4.32 10.66 6.47 2.44 1.51 4.88 3 7.34 4.49 8.18 4.94 16.14 7.13 23.66 6.54 3.93-.31 7.88-.78 11.7-1.24a156.46 156.46 0 0121.15-1.59c11 .18 20.36 2.45 28.49 6.95 5 2.8 10 6 14.8 9.13s9.73 6.32 14.82 9.15a100.48 100.48 0 0126.35 20.51v-5.83a107 107 0 00-24.41-18.18c-5-2.76-9.86-5.94-14.59-9s-9.87-6.4-15-9.26c-8.72-4.83-18.66-7.27-30.37-7.46a160.85 160.85 0 00-21.67 1.61c-3.79.45-7.7.92-11.54 1.22-6.67.54-13.83-1.48-21.29-6q-3.66-2.22-7.3-4.47c-3.5-2.16-7.12-4.39-10.73-6.51-8.33-4.9-17.6-5.93-25.78-6.83-14.13-1.57-22.4-5.21-25.64-19.93-1.29-5.84 1.26-11 7.57-15.37 2.76-1.91 5.67-3.76 8.48-5.54a138.21 138.21 0 0016-11.27c2.87-2.46 5.86-4.9 8.75-7.26 9.16-7.48 18.62-15.21 26.15-24.88 8.33-10.71 11.48-23.29 9.64-38.49-1.34-11-3.87-20-8-28.11-5.28-10.53-14.54-16.63-27.52-18.12-3.81-.43-7.62-.91-11.44-1.39-7.4-.93-15-1.89-22.63-2.52l-2.06-.17c-11.68-1-23.75-2-35.64-1.68-10.85.28-19.75 3.9-26.46 10.79-1.34 1.37-3.3 2.37-3.88 2.28-1.2-.34-1.76-1.94-1.67-4.75.16-5.1.3-11.83 0-18.65-.16-3.49-1.25-6-3.26-7.6s-4.95-2-8.58-1.25l-.26.06a19.42 19.42 0 00-5.26 1.66c-22.51 12.07-39.14 27.67-50.84 47.69-2.94 5-6.1 10.07-9.16 14.95-2.57 4.1-5.23 8.34-7.75 12.57-5 8.43-7.51 15.94-7.58 23-.1 11 5.58 19.52 15.59 23.29a86.27 86.27 0 0017.38 4.58c4 .62 8.12.91 12.08 1.19 3.63.27 7.35.54 10.94 1.04z" class="bfb92e40-c938-4774-8303-1e5542ab5b61"/><path d="M569.52 992.4c14.61-17 43-15.75 43.32-15.74 4.18.06 7.54-1.36 9.46-4s2.23-6.2.91-10.07a36.39 36.39 0 00-2.62-5.52c-.32-.59-.65-1.18-1-1.77-1.21-2.35-2.52-4.69-3.78-7a128.23 128.23 0 01-7.47-14.92c-3.89-9.87-7.14-20.23-10.29-30.24l-1.23-3.93a81.58 81.58 0 00-9.08-25.37c-9.61-17-24.21-26.42-42.2-27.16-21.34-.94-38 8.5-50.84 28.89-2.34 3.69-5 7.29-7.62 10.78-1.75 2.34-3.55 4.75-5.25 7.2-4.78 6.88-11.86 10.82-21.64 12-19.33 2.45-32.88 10.54-42.6 25.45-7.22 11-15.46 21.73-23.42 32.06-3.39 4.4-6.9 9-10.29 13.47l-2.56 3.44c-3.71 5-7.53 10.08-11.42 15-7.9 10-17.61 14.88-29.66 14.88h-2.11c-9.46-.14-18.39-.28-26.89-3.54-11.21-4.3-19.5-12.55-26.8-20.83-9.14-10.37-17.63-19.48-28.95-26a67.43 67.43 0 00-30.4-8.74q-7.14-.37-14.3-.71c-8.26-.39-16.79-.8-25.17-1.33-17.91-1.14-32.9 6.13-45.77 22.22-2.8 3.49-6 6.83-9.06 10.06-2.6 2.73-5.29 5.55-7.78 8.5-9.2 10.88-15 24.36-17.86 41.16h4.06c2.74-15.76 8.25-28.4 16.85-38.58 2.42-2.86 5.07-5.63 7.63-8.32 3.14-3.29 6.38-6.69 9.28-10.32 12.17-15.21 25.66-21.79 42.39-20.73 8.41.54 17 .94 25.24 1.34q7.14.33 14.28.7a62.83 62.83 0 0128.62 8.21c10.79 6.2 19 15.06 27.94 25.16 7.63 8.66 16.35 17.31 28.36 21.92 9.17 3.51 18.88 3.66 28.27 3.8h2.19c13.34 0 24.07-5.37 32.78-16.4 3.92-5 7.76-10.12 11.48-15.1l2.56-3.43c3.37-4.5 6.87-9 10.25-13.42 8-10.4 16.31-21.15 23.61-32.32 9-13.81 21.67-21.3 39.78-23.57 10.83-1.35 19-6 24.43-13.73 1.66-2.39 3.45-4.78 5.17-7.09 2.65-3.55 5.38-7.21 7.8-11 12.05-19.07 27.52-27.91 47.28-27 16.75.69 29.82 9.11 38.84 25a78.12 78.12 0 018.68 24.24 1.77 1.77 0 00.08.31l1.28 4.06c3.16 10.09 6.44 20.51 10.38 30.52a130.12 130.12 0 007.7 15.4c1.24 2.24 2.53 4.56 3.73 6.85.32.62.65 1.24 1 1.85a31.46 31.46 0 012.34 4.89c.89 2.61.76 4.89-.35 6.43s-3.24 2.38-5.92 2.38H613c-1.24-.07-30.57-1.4-46.47 17.1-8.56 10-11.48 23.69-8.7 40.84h4.05c-2.79-16.25-.21-29.09 7.64-38.23z" class="bfb92e40-c938-4774-8303-1e5542ab5b61"/><path d="M697.12 1010c5.93-26 21.78-45 47.11-56.49 9.38-4.27 20-7.71 33.36-10.83a1 1 0 00.25 0h5.96c4 .15 6.73 2.33 6.94 5.56a81.7 81.7 0 01-.44 12.83c-.61 6.44-1.37 14-2.5 21.44-.28 1.82-.54 3.65-.81 5.48a212.92 212.92 0 01-4.3 23.38 24.73 24.73 0 01-18.14 18.24c-1.3.35-2.61.66-3.93 1H768a26.49 26.49 0 0016.61-18.7A214.16 214.16 0 00789 988.3q.39-2.73.81-5.46c1.13-7.47 1.9-15.09 2.51-21.55a82 82 0 00.44-13.15c-.27-4.25-3.83-7.24-8.86-7.43-1.39-.05-2.8 0-4.17 0h-1.86a1 1 0 00-.25 0 1.11 1.11 0 00-.48 0c-13.51 3.15-24.23 6.63-33.74 11-25.93 11.8-42.16 31.27-48.22 57.86-1.29 5.63-1.76 13.59 2.49 21.07H700c-4.57-7.24-4.13-15.14-2.88-20.64z" class="bfb92e40-c938-4774-8303-1e5542ab5b61"/><path d="M984.57 910.39c-4.89 12.7-.88 23.61 11.27 30.71a41.65 41.65 0 0021.69 5.78h.27v-2a39.8 39.8 0 01-20.95-5.48c-11.37-6.64-15-16.42-10.41-28.26 2.74-7.13 8.72-12.15 18.28-15.36 4.25-1.43 8.73-2.47 13.08-3.48v-2c-4.54 1-9.23 2.13-13.72 3.63-10.02 3.29-16.58 8.85-19.51 16.46z" class="bfb92e40-c938-4774-8303-1e5542ab5b61"/><path d="M674.41 906.79a1.5 1.5 0 001.47 1.25 1.15 1.15 0 00.26 0 53.52 53.52 0 006.13-1.46l5.63-1.69a1.5 1.5 0 10-.9-2.89l-5.62 1.69a52.21 52.21 0 01-5.78 1.38 1.5 1.5 0 00-1.19 1.72z" class="bfb92e40-c938-4774-8303-1e5542ab5b61"/><path d="M697 837.72l-3.7-.24-4.3-.28a1.35 1.35 0 00-.35 0 1.51 1.51 0 00-.52 0 104.37 104.37 0 00-11.83 2.85 1.5 1.5 0 00.44 2.93 1.59 1.59 0 00.43-.06 101.94 101.94 0 0111.48-2.76h.14l4.39.29 3.68.23a1.53 1.53 0 001.6-1.4 1.49 1.49 0 00-1.46-1.56z" class="bfb92e40-c938-4774-8303-1e5542ab5b61"/><path d="M697.5 900.34a1.51 1.51 0 001.44 1.06 1.39 1.39 0 00.44-.07q5.73-1.79 11.46-3.61a1.5 1.5 0 00-.92-2.86q-5.7 1.83-11.43 3.61a1.5 1.5 0 00-.99 1.87z" class="bfb92e40-c938-4774-8303-1e5542ab5b61"/><path d="M721 840.28l-.43-.06c-3.64-.47-7.55-1-11.51-1.41a1.5 1.5 0 10-.33 3c3.93.44 7.83.93 11.46 1.4h.62a1.5 1.5 0 00.19-3z" class="bfb92e40-c938-4774-8303-1e5542ab5b61"/><path d="M720.38 893.07a1.48 1.48 0 001.42 1 1.55 1.55 0 00.47-.08c3.8-1.24 7.61-2.5 11.4-3.77a1.5 1.5 0 10-.95-2.84q-5.69 1.91-11.38 3.76a1.5 1.5 0 00-.96 1.93z" class="bfb92e40-c938-4774-8303-1e5542ab5b61"/><path d="M751.09 874.47a26.78 26.78 0 01-7.9 8 1.5 1.5 0 00.84 2.74 1.47 1.47 0 00.83-.25 29.68 29.68 0 008.78-9 1.5 1.5 0 00-2.55-1.59z" class="bfb92e40-c938-4774-8303-1e5542ab5b61"/><path d="M745 844c-.74-.25-1.51-.46-2.29-.64-2.82-.63-5.93-1.16-9.77-1.66a1.5 1.5 0 10-.38 3c3.74.49 6.76 1 9.49 1.62a18.23 18.23 0 012 .56 1.66 1.66 0 00.48.08A1.5 1.5 0 00745 844z" class="bfb92e40-c938-4774-8303-1e5542ab5b61"/><path d="M641.12 880.15a1.5 1.5 0 00-1.27 1.7 33.66 33.66 0 004 11.84 1.48 1.48 0 001.3.76 1.52 1.52 0 00.74-.2 1.5 1.5 0 00.56-2 30.88 30.88 0 01-3.6-10.79 1.5 1.5 0 00-1.73-1.31z" class="bfb92e40-c938-4774-8303-1e5542ab5b61"/><path d="M756.2 865.54h.16a1.5 1.5 0 001.49-1.34 20 20 0 00.13-2.32 18.87 18.87 0 00-2.88-10.14 1.5 1.5 0 10-2.53 1.61 15.82 15.82 0 012.41 8.53 19 19 0 01-.11 2 1.5 1.5 0 001.33 1.66z" class="bfb92e40-c938-4774-8303-1e5542ab5b61"/><path d="M654.67 852.38a1.5 1.5 0 00.76-.21c.68-.41 1.39-.8 2.11-1.18 2.81-1.46 5.66-2.81 8.48-4a1.5 1.5 0 00-1.17-2.76c-2.9 1.23-5.82 2.61-8.7 4.11-.77.4-1.53.83-2.25 1.26a1.5 1.5 0 00.77 2.79z" class="bfb92e40-c938-4774-8303-1e5542ab5b61"/><path d="M651.87 900.91a1.5 1.5 0 00.32 2.1c.62.46 1.28.9 1.95 1.33a26.88 26.88 0 009.53 3.75h.28a1.5 1.5 0 00.28-3 24.19 24.19 0 01-8.48-3.34c-.62-.39-1.22-.8-1.78-1.22a1.51 1.51 0 00-2.1.38z" class="bfb92e40-c938-4774-8303-1e5542ab5b61"/><path d="M646.56 857.49a1.49 1.49 0 00-2.1.3 24.88 24.88 0 00-4.77 11.68 1.51 1.51 0 001.28 1.69h.21a1.5 1.5 0 001.48-1.3 21.94 21.94 0 014.2-10.28 1.51 1.51 0 00-.3-2.09z" class="bfb92e40-c938-4774-8303-1e5542ab5b61"/><path d="M942.09 730.72a1.06 1.06 0 00-.47 0 1 1 0 00-.56 0c-9.47 3-11.91 7.71-9 17.2 3.55 11.63 9.54 20.38 17.81 26a19.47 19.47 0 0017.36 1.93 14.25 14.25 0 009.14-9.94c1.86-7.34-1.93-12.61-6.32-17.81a51.1 51.1 0 00-27.96-17.38zm32.32 34.74a12.28 12.28 0 01-7.91 8.54 17.38 17.38 0 01-15.5-1.7c-8-5.44-13.56-13.6-17-24.94-2.57-8.4-.71-12 7.66-14.69a49.16 49.16 0 0126.86 16.76c4.02 4.79 7.48 9.57 5.89 16.03z" class="bfb92e40-c938-4774-8303-1e5542ab5b61"/><path d="M1017.8 790.67c-13.93 5.72-28.34 11.41-43.57 13.51-19.63 2.7-33.65-2.42-42.88-15.67-6.61-9.5-12-20.11-16.46-29.31-3.94-8.07-8.55-18.89-9.15-31.05-.55-11 3.33-17.08 13-20.47a47.63 47.63 0 015.34-1.42c.85-.19 1.71-.38 2.56-.59h.17c9.27.75 16.11 2.4 22.15 5.37 7 3.46 14.2 6.9 21.14 10.23s14.25 6.84 21.33 10.33a75.82 75.82 0 0026.39 7.88v-2a73.83 73.83 0 01-25.5-7.67c-7.1-3.49-14.35-7-21.36-10.33s-14.1-6.77-21.12-10.22c-6.28-3.09-13.33-4.81-22.87-5.57a.89.89 0 00-.33 0 1.06 1.06 0 00-.5 0c-.83.21-1.67.39-2.51.58a48.57 48.57 0 00-5.56 1.48c-10.49 3.69-14.91 10.61-14.31 22.46.62 12.52 5.33 23.59 9.35 31.83 4.53 9.26 9.92 19.95 16.62 29.57 8 11.55 19.49 17.23 34.82 17.23a73.35 73.35 0 0010-.72c15.2-2.09 29.49-7.66 43.3-13.33z" class="bfb92e40-c938-4774-8303-1e5542ab5b61"/><path d="M1010.67 821.9a78.11 78.11 0 01-11.27 3.61 1 1 0 00-.74 1.21 1 1 0 001 .77h.23a80.52 80.52 0 0011.56-3.71 1 1 0 10-.75-1.85z" class="bfb92e40-c938-4774-8303-1e5542ab5b61"/><path d="M931.05 815.69a1 1 0 00-1.27 1.55 50.26 50.26 0 0010.32 6.53 1.11 1.11 0 00.43.09A1 1 0 00941 822a47.83 47.83 0 01-9.95-6.31z" class="bfb92e40-c938-4774-8303-1e5542ab5b61"/><path d="M913.74 797.93a1 1 0 00-.22 1.4c2.44 3.34 5 6.5 7.6 9.41a1 1 0 00.74.33 1 1 0 00.67-.26 1 1 0 00.08-1.41 117.66 117.66 0 01-7.48-9.25 1 1 0 00-1.39-.22z" class="bfb92e40-c938-4774-8303-1e5542ab5b61"/><path d="M980.92 827.65h-.55c-1.51 0-3 0-4.54-.1a1 1 0 00-1 1 1 1 0 001 1c1.53.05 3.07.09 4.6.1h.56c2.33 0 4.67-.09 7-.28a1 1 0 00.92-1.08 1 1 0 00-1.08-.92c-2.35.19-4.63.28-6.91.28z" class="bfb92e40-c938-4774-8303-1e5542ab5b61"/><path d="M960.42 826.69a59.44 59.44 0 01-8.32-1.07 1 1 0 00-.4 2 61.89 61.89 0 008.61 1.11c1.15.06 2.29.13 3.44.21h.06a1 1 0 00.07-2z" class="bfb92e40-c938-4774-8303-1e5542ab5b61"/><path d="M891.91 756.41a1 1 0 00-1.79.9c1.32 2.64 2.62 5.3 3.92 8l1.37 2.8a1 1 0 00.9.56 1 1 0 00.44-.1 1 1 0 00.46-1.34l-1.37-2.8c-1.3-2.7-2.61-5.37-3.93-8.02z" class="bfb92e40-c938-4774-8303-1e5542ab5b61"/><path d="M883.08 740.26a46.09 46.09 0 00-3.33-4.75 1 1 0 10-1.55 1.26 43.52 43.52 0 013.17 4.54c1 1.71 2.12 3.53 3.18 5.42a1 1 0 00.87.51 1.07 1.07 0 00.49-.12 1 1 0 00.38-1.36 164.62 164.62 0 00-3.21-5.5z" class="bfb92e40-c938-4774-8303-1e5542ab5b61"/><path d="M901.27 777.45a1 1 0 00-.42 1.35c2 3.81 4 7.23 6 10.48a1 1 0 00.85.48 1 1 0 00.53-.15 1 1 0 00.33-1.38c-2-3.21-3.9-6.6-5.91-10.37a1 1 0 00-1.38-.41z" class="bfb92e40-c938-4774-8303-1e5542ab5b61"/><path d="M876 701.46a1 1 0 00-1.29-.57 102.39 102.39 0 01-11.33 3.56 1 1 0 00-.73 1.21 1 1 0 001 .76 1.07 1.07 0 00.25 0 104.24 104.24 0 0011.55-3.63 1 1 0 00.55-1.33z" class="bfb92e40-c938-4774-8303-1e5542ab5b61"/><path d="M852 708.7a1 1 0 10-.28-2l-.43.06c-3.59.5-7.73 1.37-11.24 4a1 1 0 00-.2 1.4 1 1 0 00.8.4 1 1 0 00.6-.2c3.15-2.36 7-3.16 10.32-3.63z" class="bfb92e40-c938-4774-8303-1e5542ab5b61"/><path d="M860.48 725.52c-.79 0-1.61 0-2.44.12a1 1 0 10.19 2c.77-.07 1.56-.07 2.27-.11a20.5 20.5 0 018.89 2 1 1 0 00.43.1 1 1 0 00.43-1.9 22.46 22.46 0 00-9.77-2.21z" class="bfb92e40-c938-4774-8303-1e5542ab5b61"/><path d="M841.73 725.11c-2.4-.8-4-2.07-4.7-3.67a1 1 0 00-1.31-.53 1 1 0 00-.53 1.31c.9 2.14 2.94 3.79 5.9 4.79a42.31 42.31 0 004.95 1.36h.2a1 1 0 00.2-2 36.53 36.53 0 01-4.71-1.26z" class="bfb92e40-c938-4774-8303-1e5542ab5b61"/><path d="M1016.09 709.55a1 1 0 001 1h.71v-2h-.71a1 1 0 00-1 1z" class="bfb92e40-c938-4774-8303-1e5542ab5b61"/><path d="M898.09 692.24a1 1 0 00-1.26-.63 109.17 109.17 0 00-11.29 4.39 1 1 0 00.42 1.91 1 1 0 00.42-.09 103 103 0 0111.08-4.3 1 1 0 00.63-1.28z" class="bfb92e40-c938-4774-8303-1e5542ab5b61"/><path d="M908.58 689.93h.27a69.69 69.69 0 017.61-1.52c1.37-.22 2.74-.44 4.09-.7a1 1 0 00.8-1.17 1 1 0 00-1.17-.79c-1.34.25-2.69.47-4 .69a73.75 73.75 0 00-7.83 1.56 1 1 0 00.27 2z" class="bfb92e40-c938-4774-8303-1e5542ab5b61"/><path d="M927.2 688a91 91 0 019.37.56h.13a1 1 0 00.13-2 93.1 93.1 0 00-9.58-.58l-2.49-.07a1 1 0 000 2z" class="bfb92e40-c938-4774-8303-1e5542ab5b61"/><path d="M959.15 695.7a1 1 0 00.38.08 1 1 0 00.93-.62 1 1 0 00-.55-1.31c-4.07-1.67-7.76-3.05-11.3-4.23a1 1 0 00-.63 1.89c3.49 1.17 7.15 2.54 11.17 4.19z" class="bfb92e40-c938-4774-8303-1e5542ab5b61"/><path d="M993.06 708.09a103.65 103.65 0 0012 2h.1a1 1 0 00.1-2 101.65 101.65 0 01-11.71-1.93 1 1 0 00-1.2.76 1 1 0 00.71 1.17z" class="bfb92e40-c938-4774-8303-1e5542ab5b61"/><path d="M981.41 704.82a1.19 1.19 0 00.32 0 1 1 0 00.95-.68 1 1 0 00-.63-1.27c-3.62-1.21-7.36-2.66-11.11-4.29a1 1 0 00-.8 1.84c3.8 1.7 7.6 3.16 11.27 4.4z" class="bfb92e40-c938-4774-8303-1e5542ab5b61"/><path d="M998.81 1030.61h2.54a52.94 52.94 0 0116.45-14.26v-2.27a55.3 55.3 0 00-18.99 16.53z" class="bfb92e40-c938-4774-8303-1e5542ab5b61"/><path d="M967.61 1030.61h2.32a76.18 76.18 0 0139.32-32.39 74.29 74.29 0 018.55-2.48v-2a76.8 76.8 0 00-9.25 2.66 78.18 78.18 0 00-40.94 34.21z" class="bfb92e40-c938-4774-8303-1e5542ab5b61"/><path d="M761.79 993.23a27.76 27.76 0 00-1.1-9.82c-2.2-6.24-8-5.95-12.61-5.72h-.26a.64.64 0 00-.2 0 1.08 1.08 0 00-.66 0c-7.76 3.42-11.53 8.46-11.52 15.42a12.6 12.6 0 0012.93 12.5c6.9.09 13.17-5.74 13.42-12.38zm-24.35 0c0-6.13 3.23-10.43 10.2-13.53a1.27 1.27 0 00.28 0h.26c4.59-.22 8.92-.44 10.62 4.39a25.75 25.75 0 011 9.09c-.21 5.51-5.65 10.54-11.42 10.54a10.62 10.62 0 01-10.94-10.52z" class="bfb92e40-c938-4774-8303-1e5542ab5b61"/><path d="M955.75 1006.08a238 238 0 01-28.44 24.53h3.38a243 243 0 0026.47-23.12c6.16-6.15 14.58-13.8 25.13-18.3s21.83-7.4 35.51-9.1v-2c-14 1.72-25.57 4.7-36.29 9.27s-19.51 12.43-25.76 18.72z" class="bfb92e40-c938-4774-8303-1e5542ab5b61"/><path d="M542.51 934a21.44 21.44 0 003 .22c8.74 0 14.55-5.68 15.75-11.68.69-3.43-.58-7.43-3.38-10.7a16.1 16.1 0 00-13-5.74c-9.29.4-10.85 5.27-12.1 9.19-.15.47-.3.93-.46 1.39a14.19 14.19 0 001.13 11.66 12 12 0 009.06 5.66zm-8.25-16.66q.25-.71.48-1.44c1.23-3.84 2.39-7.46 10.29-7.8h.6a14.15 14.15 0 0110.77 5.06c2.41 2.81 3.51 6.18 2.94 9-1.15 5.77-7.34 11.18-16.54 9.87a10.14 10.14 0 01-7.58-4.72 12.16 12.16 0 01-.96-9.95z" class="bfb92e40-c938-4774-8303-1e5542ab5b61"/><path d="M618.11 1030.61h2.75a10.15 10.15 0 012.55-1.8c2.88-1.4 6.29-1.14 10.13.78.64.32 1.26.66 1.87 1h3.69a36.81 36.81 0 00-4.67-2.81c-4.42-2.21-8.43-2.48-11.9-.79a13.36 13.36 0 00-4.42 3.62z" class="bfb92e40-c938-4774-8303-1e5542ab5b61"/><path d="M51.23 659.1c5 0 9.92-.17 14.63-.43 23.27-1.27 49.35-5.48 58.14-9.37 7.31-3.23 11.73-8.26 13.13-14.94 2.21-10.5-3.69-24.68-15.8-38-16.65-18.26-68.85 10.93-71.08 12.19-.92.53-22.67 13-26.47 16-4.62 3.64-18.69 14.75-13 24.26 4.88 8.1 22.58 10.29 40.45 10.29zm-24.35-30.55c2.91-2.3 19.66-12.06 25.85-15.62 14.11-8 53.3-25.89 64.91-13.16 10.86 11.91 16.45 24.77 14.6 33.56-1.06 5-4.51 8.86-10.26 11.4-7.3 3.23-31.7 7.59-56.4 8.95-27.9 1.54-46.77-1.22-50.48-7.37-2.23-3.7 1.96-10.01 11.78-17.76z" class="bfb92e40-c938-4774-8303-1e5542ab5b61"/><path d="M391.09 631.18c.23-3.27.47-6.65.93-10.34.6-4.85-.64-8.64-3.7-11.27-9-7.71-30.83-1.67-31.76-1.41l-.28.1c-1.09.49-26.78 12.24-27.29 31.27-.15 5.45 1.12 9.43 3.87 12.17 4 3.95 10.33 4.75 18.38 4.75 2.58 0 5.34-.08 8.25-.17 3.21-.09 6.53-.19 10-.19 19.84 0 20.58-10.45 21.6-24.91zm-21.6 20.91c-3.53 0-6.88.1-10.12.2-11 .32-19.67.59-23.68-3.42-1.94-1.93-2.82-4.94-2.7-9.23.43-15.89 22.9-26.77 24.8-27.67 5.87-1.62 21.88-4.56 27.92.63 2 1.73 2.78 4.26 2.34 7.74-.47 3.8-.72 7.39-.95 10.56-1.03 14.55-1.5 21.19-17.61 21.19z" class="bfb92e40-c938-4774-8303-1e5542ab5b61"/><path d="M775.22 634.82c8.86 13.81 21.64 20.62 38.86 20.62a78.34 78.34 0 0012.73-1.1c19.8-3.23 41.4-13.3 58.75-21.39l.15-.07c7.49-3.49 12-8.27 13.44-14.2 3.32-13.74-10.4-31.39-24.93-50.09-7.7-9.91-15.67-20.17-21.4-30.17-6.24-10.9-13.94-16.91-22.88-17.87-16.83-1.81-33.79 14.19-48.13 30.08-15.46 17.13-24.5 29.53-24.93 42.23-.41 12.08 6.7 23.81 18.34 41.96zm10.3-80.82c8.17-9.05 27.29-30.24 43.89-28.46 7.26.78 13.67 6 19.08 15.39 5.9 10.3 14 20.7 21.79 30.75 13.76 17.72 26.76 34.45 24 45.85-1.07 4.44-4.57 8-10.69 10.84l-.16.07c-34.56 16.12-81.89 38.19-104 3.7-22.96-35.81-25.86-42.76 6.09-78.14z" class="bfb92e40-c938-4774-8303-1e5542ab5b61"/><path d="M755.39 451.75c20.31 8.65 44.59 14 64.93 14.28h1.29c14.09 0 23.37-3.38 28.34-10.32 8.49-11.85 2.51-31.68-4.35-51-9.46-26.58-45.93-30.34-61.18-30.72h-.72c-19.42-.7-37.76 6.66-50.37 20.19-8.54 9.17-13.27 20.28-12.34 29 1.01 9.27 13.53 19.68 34.4 28.57zm-20.6-56.18C746.47 383 763.26 376 781.17 376h3.21c14.83.37 50.3 4 59.33 29.39 6.68 18.8 12.54 38.07 4.62 49.14-4.71 6.57-13.87 9.66-28 9.47-20.1-.28-44.09-5.56-64.18-14.12-19.86-8.44-32.27-18.51-33.15-26.88-.89-8.17 3.63-18.68 11.79-27.43z" class="bfb92e40-c938-4774-8303-1e5542ab5b61"/><path d="M810.85 602.46c4.86 3.92 13 5.54 21.64 5.53 13.06 0 27.15-3.71 32.2-8.69 10.07-9.92.46-19.83-8.84-29.41-1.94-2-3.94-4.07-5.78-6.13a16.39 16.39 0 00-13.93-5.86c-8.45.68-17.78 7.5-24.33 17.81-9.56 15.02-5.81 22.84-.96 26.75zm2.65-25.68c6.22-9.78 15-16.25 22.8-16.88h1.26a14.33 14.33 0 0111 5.24c1.87 2.1 3.89 4.18 5.85 6.19 9.4 9.7 17.52 18.07 8.87 26.6-7 6.88-39.15 12.75-51.19 3-6.09-4.93-5.63-13.08 1.41-24.15z" class="bfb92e40-c938-4774-8303-1e5542ab5b61"/></g></g></svg>